<svg width="696" height="510" viewBox="0 0 696 510" fill="none" xmlns="http://www.w3.org/2000/svg">
<path d="M222.964 93.2174C212.054 103.135 197.315 106.541 183.002 107.392C174.744 107.893 166.486 107.618 158.229 107.818C154.125 107.918 149.996 108.143 145.917 108.619C145.692 108.644 145.467 108.669 145.242 108.694C145.342 108.694 145.892 108.594 145.342 108.669C144.866 108.744 144.366 108.82 143.89 108.895C142.94 109.045 141.989 109.22 141.038 109.396C139.261 109.746 137.509 110.147 135.783 110.598C133.706 111.149 131.654 111.775 129.627 112.451C128.651 112.777 127.675 113.152 126.699 113.528C126.249 113.703 125.799 113.878 125.348 114.054C125.148 114.129 124.973 114.204 124.773 114.279C123.546 114.78 125.248 114.054 124.547 114.379C120.694 116.132 116.94 118.036 113.337 120.265C111.26 121.542 108.132 120.765 106.981 118.587C105.78 116.308 106.431 113.603 108.658 112.226C122.095 103.886 137.284 99.5535 153.024 98.6769C161.182 98.2261 169.364 98.5016 177.547 98.2762C181.225 98.176 184.929 98.0007 188.582 97.575C188.957 97.5249 189.333 97.4748 189.733 97.4498C189.958 97.4247 190.634 97.3746 189.633 97.4748C189.833 97.4498 190.008 97.4247 190.209 97.3997C191.084 97.2745 191.985 97.1242 192.861 96.9739C194.488 96.6734 196.114 96.3479 197.716 95.9472C199.567 95.4964 201.394 94.9454 203.171 94.3193C204.072 94.0188 204.947 93.6682 205.823 93.3176C204.922 93.6682 206.123 93.1923 206.449 93.0421C206.849 92.8668 207.249 92.6664 207.625 92.4911C209.301 91.6647 210.928 90.7381 212.504 89.7113C213.28 89.1853 214.056 88.6594 214.807 88.0834C214.031 88.6845 215.107 87.8079 215.332 87.6326C215.707 87.3071 216.083 86.9815 216.458 86.6309C218.26 85.003 221.263 84.7276 223.014 86.6309C224.591 88.434 224.866 91.4643 222.964 93.2174Z" fill="#DAEFF2"/>
<path d="M526.222 75.0108C523.569 72.5314 520.817 70.1523 517.964 67.8984C517.589 67.5978 517.213 67.3223 516.863 67.0218C516.463 66.6963 516.938 67.097 517.013 67.122C516.863 66.9968 516.688 66.8716 516.538 66.7463C515.787 66.1703 515.036 65.6194 514.286 65.0434C512.809 63.9665 511.333 62.9146 509.832 61.9129C503.801 57.8308 497.495 54.2245 490.914 51.1191C489.938 50.6683 488.962 50.2175 487.986 49.7667C487.561 49.5663 487.135 49.391 486.685 49.1907C486.51 49.1155 486.31 49.0404 486.135 48.9402C484.958 48.4143 486.635 49.1406 485.934 48.8651C484.008 48.0637 482.081 47.3124 480.104 46.5861C477.827 45.7597 476.05 43.4056 476.851 40.8762C477.577 38.6473 480.129 36.7189 482.556 37.6205C497.195 43.0299 510.782 50.6182 523.094 60.1849C526.447 62.7894 529.675 65.5442 532.778 68.4243C534.555 70.0772 534.58 73.3328 532.778 74.9857C530.876 76.7638 528.124 76.7889 526.222 75.0108Z" fill="#DAEFF2"/>
<path d="M566.459 185.128C566.459 185.704 566.459 186.28 566.509 186.831C566.534 187.056 566.559 187.281 566.559 187.507C566.659 188.634 566.434 186.806 566.534 187.457C566.734 188.534 566.935 189.585 567.26 190.612C567.435 191.163 567.635 191.689 567.811 192.24C568.111 193.067 567.56 191.714 567.811 192.24C567.936 192.491 568.036 192.766 568.161 193.016C568.636 193.993 569.187 194.945 569.787 195.846C570.063 196.272 570.363 196.723 570.688 197.099C570.313 196.673 570.363 196.673 570.713 197.099C570.888 197.324 571.089 197.524 571.264 197.75C571.989 198.551 572.765 199.302 573.591 200.004C573.666 200.079 573.766 200.154 573.866 200.229C574.141 200.454 574.041 200.379 573.591 200.029C573.591 200.129 574.066 200.379 574.141 200.429C574.617 200.755 575.092 201.081 575.568 201.356C576.043 201.657 576.544 201.932 577.069 202.182C577.269 202.283 577.47 202.383 577.695 202.483C578.746 202.984 576.769 202.132 577.845 202.558C580.097 203.46 581.924 205.714 581.098 208.268C580.397 210.447 577.795 212.475 575.393 211.524C564.658 207.266 557.101 196.798 557.176 185.103C557.201 182.673 559.303 180.344 561.83 180.445C564.307 180.595 566.459 182.523 566.459 185.128Z" fill="#DAEFF2"/>
<path d="M68.4952 339.171C68.1449 344.631 68.2199 350.09 68.7204 355.55C68.7705 356.226 68.8455 356.902 68.9206 357.553C68.9456 357.854 68.9957 358.155 69.0207 358.455C69.0457 358.555 69.1959 359.732 69.1208 359.181C69.0457 358.705 69.1708 359.582 69.1958 359.682C69.2459 360.058 69.2959 360.433 69.371 360.784C69.4711 361.46 69.5962 362.111 69.6963 362.788C70.1718 365.517 70.7723 368.222 71.473 370.902C72.0735 373.256 70.6972 376.061 68.2199 376.612C65.7927 377.163 63.1652 375.885 62.5146 373.356C59.6369 362.237 58.4859 350.641 59.2115 339.196C59.3617 336.767 61.2384 334.438 63.8659 334.538C66.2181 334.638 68.6453 336.592 68.4952 339.171Z" fill="#DAEFF2"/>
<path d="M70.372 276.212C85.8114 344.782 65.9679 407.216 118.592 439.898C135.708 450.541 160.531 458.004 196.74 461.51C204.397 462.262 212.554 462.813 221.288 463.188C234.3 463.764 248.538 463.915 264.128 463.614C278.966 463.339 295.006 462.662 312.373 461.586C344.653 459.557 375.932 456.527 405.309 452.169C420.323 449.94 434.837 447.386 448.75 444.431C456.407 442.803 463.889 441.05 471.145 439.196C475.349 438.12 479.478 436.993 483.532 435.841C484.058 435.69 484.558 435.54 485.058 435.39C490.714 433.737 496.219 432.009 501.574 430.206C507.354 428.252 512.959 426.174 518.364 424.02C541.411 414.804 561.004 403.609 576.168 390.136C601.417 367.672 614.404 338.796 610.525 301.807C603.894 238.696 536.131 205.614 542.837 178.491C563.557 94.5196 505.903 42.7291 404.083 34.7652C275.238 24.6726 235.701 117.835 183.077 113.127C97.7976 105.489 46.8501 171.654 70.372 276.212Z" fill="#4AA0AC"/>
<path d="M198.667 176.963C203.921 173.582 213.405 168.373 219.061 165.868C237.303 157.829 237.428 171.904 255.645 163.865L241.857 196.171C238.904 203.409 233.224 208.994 226.868 212.926C220.512 216.857 213.48 219.287 206.499 221.716C190.184 227.351 171.867 289.234 155.551 294.869C160.106 264.716 179.374 189.409 198.667 176.963Z" fill="#FDBAA0"/>
<path d="M268.231 229.179L258.147 224.496L256.245 223.62L247.187 219.412L229.495 211.198L201.719 198.3L198.316 196.723L180.7 243.379L181.701 245.433L181.776 245.558L182.001 246.034L182.301 246.635L184.603 251.393L187.756 257.854L186.981 258.055C186.981 258.055 179.349 266.995 171.591 276.086C170.415 277.464 169.264 278.816 168.113 280.168C165.361 283.399 162.733 286.479 160.606 288.959C159.105 290.712 157.854 292.189 156.978 293.216C156.152 294.193 155.651 294.769 155.601 294.844C155.426 301.355 145.617 330.106 134.782 359.983C126.299 383.424 117.166 407.541 111.56 422.216C111.56 422.216 111.56 422.241 111.535 422.267C110.034 426.148 108.808 429.379 107.907 431.733C107.632 432.434 107.381 433.085 107.181 433.636C107.457 433.636 107.907 433.636 108.508 433.636C110.334 433.661 113.412 433.737 116.49 433.787C117.391 433.812 118.292 433.812 119.167 433.837C120.143 433.862 121.094 433.862 121.945 433.887C122.696 433.887 123.371 433.912 123.947 433.912C124.698 433.912 125.273 433.912 125.623 433.912C126.449 433.887 127.25 433.862 128.076 433.837C131.704 433.712 135.408 433.536 139.211 433.286C140.137 433.236 141.038 433.161 141.964 433.11C146.418 432.785 150.972 432.384 155.651 431.883C156.427 431.808 157.178 431.733 157.979 431.633C161.682 431.232 165.486 430.756 169.339 430.23C170.04 430.13 170.715 430.03 171.416 429.93C175.12 429.404 178.873 428.828 182.702 428.177C182.877 428.152 183.077 428.127 183.252 428.077C183.352 428.052 183.452 428.027 183.577 428.027C184.003 427.951 184.428 427.876 184.854 427.801C185.204 427.751 185.554 427.676 185.93 427.626C189.033 427.1 192.211 426.624 195.414 426.148C196.089 426.048 196.765 425.948 197.465 425.848C199.642 425.522 201.845 425.222 204.072 424.921C204.797 424.821 205.523 424.721 206.249 424.621C207.099 424.495 207.975 424.395 208.826 424.27C209.727 424.145 210.628 424.045 211.529 423.919C213.781 423.619 216.058 423.343 218.335 423.068C219.011 422.993 219.686 422.893 220.387 422.818C220.787 422.767 221.188 422.717 221.563 422.667C222.464 422.567 223.365 422.442 224.29 422.342C224.991 422.267 225.692 422.191 226.367 422.091C226.593 415.981 226.918 409.82 227.318 403.734C227.568 399.827 227.869 395.971 228.194 392.164C229.72 373.707 231.797 356.702 233.399 344.881C233.549 343.83 233.674 342.828 233.799 341.876C233.874 341.35 233.949 340.849 233.999 340.374C234.075 339.873 234.15 339.397 234.2 338.921C234.825 334.488 235.326 331.258 235.601 329.53C235.651 329.179 235.701 328.878 235.751 328.653C235.801 328.302 235.826 328.102 235.826 328.102C235.851 328.102 235.851 328.077 235.876 328.077C236.377 327.877 236.877 327.651 237.403 327.426C237.878 327.226 238.329 327.025 238.829 326.8C242.107 325.347 245.71 323.494 249.114 320.664C255.62 315.255 261.375 306.314 262.601 289.81C262.626 289.46 262.651 289.134 262.676 288.808C262.751 287.957 262.826 287.131 262.926 286.279V286.254C263.001 285.503 263.102 284.751 263.202 284V283.9C263.252 283.574 263.302 283.249 263.327 282.923V282.848C263.327 282.748 263.352 282.673 263.352 282.573C263.352 282.523 263.377 282.447 263.377 282.397C265.053 270.902 268.382 260.659 271.685 252.67C272.06 251.769 272.435 250.892 272.786 250.066C272.786 250.041 272.811 250.016 272.811 249.991C272.911 249.765 273.011 249.565 273.111 249.34C277.09 240.374 280.643 234.989 280.643 234.989L268.231 229.179Z" fill="#FDBAA0"/>
<path d="M249.038 321.466C243.208 326.099 236.277 329.13 228.945 330.332C228.294 330.432 228.244 329.405 228.895 329.305C236.051 328.128 242.808 325.123 248.488 320.615C248.988 320.189 249.539 321.066 249.038 321.466Z" fill="#E79780"/>
<path d="M233.924 403.285C234.325 399.027 234.375 396.197 233.924 395.171C233.374 393.918 231.372 393.017 228.169 392.19C227.644 392.065 227.093 391.915 226.492 391.79C226.417 391.765 226.342 391.765 226.242 391.74C225.391 391.539 224.466 391.364 223.49 391.189C221.188 390.738 218.535 390.287 215.607 389.786C214.381 389.586 213.13 389.36 211.804 389.11C211.028 388.96 210.227 388.809 209.402 388.659C209.176 388.609 208.951 388.584 208.751 388.534C208.376 388.459 208 388.384 207.625 388.334C202.495 387.357 196.765 386.13 190.659 384.527C190.334 384.452 189.983 384.352 189.658 384.252C189.308 384.151 188.932 384.051 188.582 383.951C187.806 383.751 187.056 383.525 186.28 383.3C182.552 382.223 178.698 381.021 174.744 379.593C174.119 379.368 173.518 379.143 172.893 378.917C170.866 378.166 168.814 377.39 166.762 376.538C166.061 376.238 165.36 375.962 164.635 375.636C160.931 374.059 157.178 372.306 153.399 370.352C152.824 370.052 152.248 369.751 151.648 369.426C149.17 368.098 146.693 366.696 144.191 365.193C144.016 365.093 143.84 364.968 143.665 364.868C143.44 364.742 143.215 364.592 142.99 364.467C142.94 364.442 142.89 364.417 142.84 364.392C142.064 363.941 141.338 363.49 140.612 363.065C138.41 361.787 136.459 360.735 134.782 359.984C129.177 357.48 126.249 358.081 124.973 363.766C124.297 366.871 116.34 385.679 106.681 407.968C103.127 416.157 94.044 437.545 84.6853 459.508L222.439 476.037C223.74 468.373 225.016 460.785 226.167 453.898C228.319 441.051 230.071 430.658 230.696 426.826C230.746 426.5 230.796 426.2 230.847 425.874C231.973 418.687 232.873 412.451 233.499 407.492C233.649 405.964 233.799 404.562 233.924 403.285Z" fill="#FF8D67"/>
<path d="M141.063 362.588C131.254 372.581 133.556 387.306 131.329 399.928C130.703 403.51 129.627 407.041 127.776 410.196C126.074 413.076 123.847 415.606 121.92 418.361C119.943 421.19 118.517 424.171 117.666 427.502C116.74 431.133 116.365 434.839 115.639 438.521C114.138 446.084 110.334 453.121 104.804 458.531C103.553 459.758 105.229 461.912 106.506 460.684C111.31 455.976 115.014 450.216 117.066 443.805C119.243 437.043 118.867 429.455 122.195 423.069C123.797 419.988 126.124 417.384 128.126 414.579C130.103 411.824 131.729 408.869 132.755 405.613C134.882 398.851 134.857 391.739 135.508 384.752C136.158 377.69 137.585 370.001 142.739 364.742C143.966 363.49 142.289 361.336 141.063 362.588Z" fill="#FF997F"/>
<path d="M166.286 377.765C163.634 380.394 161.407 383.475 159.755 386.83C158.029 390.336 157.128 394.043 156.377 397.85C155.726 401.18 154.976 404.486 153.399 407.516C151.948 410.271 150.096 412.751 148.295 415.255C146.443 417.835 144.666 420.464 143.64 423.494C142.589 426.6 142.289 429.881 141.914 433.111L141.864 433.587C141.463 436.868 140.988 440.199 139.687 443.254C138.535 445.909 136.784 448.213 134.882 450.391C131.454 454.323 126.875 458.305 126.9 463.94C126.9 464.19 126.85 464.391 126.749 464.566L124.347 464.266C124.247 464.09 124.197 463.865 124.197 463.589C124.172 457.053 129.477 452.545 133.356 447.962C135.408 445.558 137.059 443.029 137.96 439.973C138.611 437.794 138.911 435.54 139.161 433.286C139.311 432.059 139.436 430.832 139.586 429.63C140.012 426.299 140.662 422.943 142.164 419.913C143.59 416.983 145.542 414.378 147.444 411.774C149.371 409.119 151.197 406.39 152.273 403.284C153.449 399.828 153.825 396.122 154.751 392.59C156.427 386.129 159.88 380.319 164.61 375.636C164.61 375.636 164.61 375.611 164.635 375.611C165.511 374.734 166.587 375.536 166.737 376.512C166.787 376.938 166.662 377.389 166.286 377.765Z" fill="#FF997F"/>
<path d="M186.48 384.253C189.633 388.785 188.832 394.771 187.306 399.755C185.404 405.915 182.727 411.7 182.752 418.262C182.777 424.072 184.278 430.458 181.726 435.943C180.475 438.597 178.448 440.776 177.672 443.681C176.896 446.611 177.347 449.792 176.196 452.622C174.169 457.706 168.839 461.212 169.364 467.197C169.514 468.95 172.217 468.55 172.067 466.797C171.842 464.267 173.268 462.113 174.669 460.135C176.146 458.081 177.772 456.053 178.723 453.674C179.849 450.844 179.549 447.788 180.174 444.858C180.8 441.828 183.102 439.549 184.328 436.794C186.881 431.059 185.479 424.648 185.454 418.612C185.404 411.926 188.307 406.116 190.109 399.83C191.735 394.12 192.16 387.683 188.607 382.6C187.631 381.122 185.479 382.825 186.48 384.253Z" fill="#FF997F"/>
<path d="M208.851 389.036C211.053 394.019 208.301 399.479 206.999 404.363C206.299 406.992 205.848 409.622 206.124 412.351C206.374 414.981 207.2 417.51 207.875 420.065C208.576 422.72 209.226 425.474 208.751 428.229C208.251 431.084 206.624 433.589 205.373 436.168C202.946 441.127 202.62 446.486 202.445 451.921C202.27 457.731 202.195 464.042 198.141 468.625C198.917 469.076 199.718 469.526 200.493 469.977C201.644 467.748 202.82 465.519 203.972 463.29C204.797 461.738 202.245 460.711 201.444 462.264C200.293 464.493 199.117 466.721 197.966 468.95C197.215 470.403 199.367 471.38 200.318 470.303C208 461.587 203.021 448.94 207.099 438.948C208.276 436.093 210.077 433.513 210.978 430.533C211.829 427.803 211.779 425.024 211.203 422.219C210.653 419.489 209.702 416.859 209.151 414.105C208.601 411.325 208.726 408.645 209.402 405.89C210.853 400.03 214.031 393.944 211.378 387.959C210.653 386.331 208.15 387.433 208.851 389.036Z" fill="#FF997F"/>
<path d="M223.69 392.39C225.041 394.294 224.566 396.623 223.89 398.676C223.114 401.005 222.013 403.209 221.388 405.588C220.036 410.522 220.612 415.681 221.263 420.69C221.938 425.698 222.814 430.857 221.663 435.866C221.037 438.621 219.611 441.05 218.46 443.605C217.359 446.034 216.683 448.538 216.483 451.218C216.033 456.828 217.459 463.439 214.006 468.323C212.98 469.75 215.157 471.428 216.183 469.976C219.436 465.393 219.01 459.833 219.086 454.499C219.111 451.694 219.311 448.889 220.337 446.234C221.413 443.454 223.014 440.875 223.915 438.02C225.542 432.836 224.966 427.376 224.24 422.067C223.54 416.783 222.539 411.198 224.115 405.989C225.592 401.105 229.32 395.571 225.867 390.687C224.816 389.235 222.664 390.938 223.69 392.39Z" fill="#FF997F"/>
<path d="M163.259 402.81C162.658 403.185 162.132 403.711 161.782 404.312C161.582 404.638 161.457 404.938 161.532 405.339C161.582 405.665 161.782 406.04 162.057 406.216C162.608 406.591 163.584 406.616 163.984 405.94C164.059 405.815 164.109 405.715 164.209 405.614C164.259 405.564 164.309 405.489 164.335 405.439C164.36 405.414 164.535 405.214 164.385 405.364C164.234 405.514 164.385 405.364 164.41 405.339C164.46 405.289 164.51 405.239 164.585 405.189C164.71 405.089 164.835 405.013 164.96 404.938C165.235 404.763 165.436 404.337 165.486 404.037C165.536 403.711 165.436 403.285 165.21 403.035C164.985 402.759 164.66 402.559 164.309 402.509C163.884 402.484 163.584 402.609 163.259 402.81Z" fill="#FF997F"/>
<path d="M167.763 424.673C167.638 424.923 167.512 425.198 167.387 425.449C167.237 425.749 167.262 426.2 167.387 426.501C167.512 426.801 167.813 427.102 168.113 427.227C168.839 427.477 169.564 427.177 169.89 426.476C170.015 426.225 170.14 425.95 170.265 425.699C170.415 425.399 170.39 424.948 170.265 424.647C170.14 424.347 169.84 424.046 169.539 423.921C168.814 423.671 168.113 423.971 167.763 424.673Z" fill="#FF997F"/>
<path d="M142.414 391.915C142.389 392.19 142.339 392.465 142.314 392.741C142.264 393.092 142.389 393.467 142.589 393.743C142.789 394.018 143.165 394.219 143.49 394.269C144.241 394.319 144.916 393.843 145.017 393.067C145.042 392.791 145.092 392.516 145.117 392.24C145.167 391.889 145.042 391.514 144.841 391.238C144.641 390.963 144.266 390.763 143.941 390.712C143.19 390.662 142.489 391.163 142.414 391.915Z" fill="#FF997F"/>
<path d="M123.346 405.188C122.771 405.964 122.546 406.891 122.646 407.843C122.721 408.544 123.496 409.12 124.197 408.995C124.948 408.844 125.423 408.193 125.348 407.442C125.323 407.141 125.298 407.667 125.348 407.392C125.348 407.342 125.423 406.941 125.373 407.141C125.323 407.342 125.448 407.016 125.448 406.966C125.498 406.866 125.473 406.891 125.398 407.041C125.423 406.991 125.473 406.916 125.523 406.866C125.949 406.29 125.874 405.363 125.248 404.937C124.648 404.512 123.772 404.587 123.346 405.188Z" fill="#FF997F"/>
<path d="M130.178 420.615C130.228 421.016 130.228 420.39 130.178 420.766C130.178 420.891 130.153 421.016 130.128 421.166C130.178 420.941 130.103 421.242 130.053 421.317C130.028 421.367 129.852 421.692 129.977 421.467C129.602 422.068 129.602 422.945 130.253 423.395C130.828 423.796 131.754 423.771 132.18 423.12C132.755 422.218 132.98 421.267 132.88 420.19C132.805 419.489 132.029 418.912 131.329 419.038C130.578 419.213 130.103 419.864 130.178 420.615Z" fill="#FF997F"/>
<path d="M105.805 432.762C105.73 433.488 105.63 434.215 105.555 434.941C105.48 435.642 106.005 436.419 106.756 436.469C107.507 436.519 108.182 436.043 108.282 435.267C108.357 434.54 108.457 433.814 108.533 433.088C108.608 432.387 108.082 431.61 107.331 431.56C106.606 431.51 105.905 432.011 105.805 432.762Z" fill="#FF997F"/>
<path d="M124.297 441.877C124.297 441.977 124.272 442.052 124.272 442.152C124.222 442.503 124.347 442.879 124.547 443.154C124.748 443.43 125.123 443.63 125.448 443.68C125.799 443.705 126.174 443.63 126.449 443.405C126.724 443.179 126.925 442.854 126.975 442.503C126.975 442.403 127 442.328 127 442.228C127.05 441.877 126.925 441.501 126.724 441.226C126.524 440.95 126.149 440.75 125.824 440.7C125.473 440.675 125.098 440.75 124.823 440.975C124.522 441.201 124.347 441.526 124.297 441.877Z" fill="#FF997F"/>
<path d="M147.494 450.743C147.494 450.843 147.469 450.918 147.469 451.019C147.419 451.369 147.544 451.745 147.744 452.02C147.944 452.296 148.32 452.496 148.645 452.546C148.995 452.571 149.371 452.496 149.646 452.271C149.921 452.045 150.121 451.72 150.171 451.369C150.171 451.269 150.196 451.194 150.196 451.094C150.246 450.743 150.121 450.368 149.921 450.092C149.721 449.817 149.346 449.616 149.02 449.566C148.67 449.541 148.295 449.616 148.019 449.842C147.719 450.067 147.544 450.368 147.494 450.743Z" fill="#FF997F"/>
<path d="M149.045 435.566C149.095 435.942 149.145 436.317 149.195 436.693C149.296 437.394 150.046 437.995 150.747 437.845C151.473 437.695 151.998 437.044 151.898 436.292C151.848 435.917 151.798 435.541 151.748 435.165C151.648 434.464 150.897 433.863 150.196 434.013C149.446 434.164 148.945 434.815 149.045 435.566Z" fill="#FF997F"/>
<path d="M161.382 442.328C161.382 442.328 161.507 442.579 161.482 442.579C161.432 442.378 161.407 442.353 161.457 442.504C161.457 442.554 161.482 442.604 161.482 442.629C161.482 442.729 161.482 442.679 161.482 442.479C161.482 442.529 161.482 442.579 161.457 442.604C161.407 442.954 161.532 442.378 161.457 442.629C161.207 443.305 161.482 444.156 162.208 444.407C162.883 444.657 163.734 444.382 163.984 443.656C164.284 442.854 164.284 441.978 163.909 441.201C163.584 440.55 162.808 440.149 162.107 440.5C161.457 440.826 161.031 441.652 161.382 442.328Z" fill="#FF997F"/>
<path d="M197.34 434.915C199.092 435.115 199.417 432.411 197.666 432.185C195.914 431.985 195.589 434.715 197.34 434.915Z" fill="#FF997F"/>
<path d="M191.085 450.441C190.984 451.268 190.884 452.069 190.784 452.896C190.684 453.622 191.235 454.323 191.985 454.423C192.711 454.523 193.412 453.973 193.512 453.221C193.612 452.395 193.712 451.593 193.812 450.767C193.912 450.041 193.362 449.339 192.611 449.239C191.86 449.164 191.16 449.715 191.085 450.441Z" fill="#FF997F"/>
<path d="M195.639 420.541C195.714 420.741 195.789 420.916 195.839 421.117C195.964 421.417 196.264 421.718 196.565 421.843C196.89 421.968 197.315 421.993 197.616 421.843C197.916 421.693 198.216 421.442 198.341 421.117C198.466 420.766 198.466 420.416 198.341 420.065C198.266 419.865 198.191 419.689 198.141 419.489C198.016 419.188 197.716 418.888 197.415 418.763C197.09 418.637 196.665 418.612 196.364 418.763C196.064 418.913 195.764 419.163 195.639 419.489C195.514 419.84 195.514 420.165 195.639 420.541Z" fill="#FF997F"/>
<path d="M195.414 400.48C197.165 400.68 197.49 397.975 195.739 397.75C193.987 397.549 193.662 400.279 195.414 400.48Z" fill="#FF997F"/>
<path d="M199.768 398.526C199.718 398.877 199.693 399.252 199.643 399.603C199.567 400.304 200.093 401.08 200.844 401.131C201.594 401.181 202.27 400.705 202.37 399.928C202.42 399.578 202.445 399.202 202.495 398.852C202.57 398.15 202.045 397.374 201.294 397.324C200.543 397.274 199.868 397.75 199.768 398.526Z" fill="#FF997F"/>
<path d="M191.735 408.418C191.76 408.894 191.81 409.345 191.835 409.821C191.885 410.547 192.711 411.098 193.387 410.973C194.162 410.822 194.588 410.171 194.538 409.42C194.513 408.944 194.463 408.493 194.438 408.017C194.388 407.291 193.562 406.74 192.886 406.865C192.135 406.991 191.685 407.642 191.735 408.418Z" fill="#FF997F"/>
<path d="M173.593 412.2C175.345 412.4 175.67 409.695 173.918 409.47C172.167 409.295 171.841 411.999 173.593 412.2Z" fill="#FF997F"/>
<path d="M170.866 397.4C170.941 397.601 171.016 397.776 171.066 397.976C171.166 398.277 171.516 398.577 171.791 398.702C172.117 398.828 172.542 398.853 172.842 398.702C173.143 398.552 173.443 398.302 173.568 397.976C173.693 397.626 173.693 397.275 173.568 396.924C173.493 396.724 173.418 396.549 173.368 396.348C173.268 396.048 172.917 395.747 172.642 395.622C172.317 395.497 171.892 395.472 171.591 395.622C171.291 395.772 170.991 396.023 170.866 396.348C170.74 396.699 170.74 397.05 170.866 397.4Z" fill="#FF997F"/>
<path d="M213.631 416.283C213.681 416.558 213.731 416.859 213.806 417.134C213.881 417.485 214.056 417.81 214.331 418.011C214.606 418.211 215.032 418.336 215.357 418.261C215.707 418.186 216.033 418.036 216.233 417.735C216.433 417.435 216.558 417.059 216.483 416.709C216.433 416.433 216.383 416.132 216.308 415.857C216.233 415.506 216.058 415.181 215.783 414.98C215.507 414.78 215.082 414.655 214.757 414.73C214.406 414.805 214.081 414.955 213.881 415.256C213.706 415.556 213.58 415.932 213.631 416.283Z" fill="#FF997F"/>
<path d="M213.731 431.634C213.706 431.809 213.681 431.984 213.656 432.185C213.606 432.535 213.731 432.911 213.931 433.186C214.131 433.462 214.506 433.662 214.832 433.712C215.182 433.737 215.557 433.662 215.833 433.437C216.108 433.212 216.308 432.886 216.358 432.535C216.383 432.36 216.408 432.185 216.433 431.984C216.483 431.634 216.358 431.258 216.158 430.983C215.958 430.707 215.582 430.507 215.257 430.457C214.907 430.432 214.531 430.507 214.256 430.732C213.956 430.958 213.756 431.283 213.731 431.634Z" fill="#FF997F"/>
<path d="M210.753 449.49C210.728 449.666 210.703 449.841 210.678 450.041C210.628 450.392 210.753 450.767 210.953 451.043C211.153 451.318 211.529 451.519 211.854 451.569C212.204 451.594 212.58 451.519 212.855 451.293C213.13 451.068 213.33 450.742 213.38 450.392C213.405 450.217 213.43 450.041 213.455 449.841C213.505 449.49 213.38 449.115 213.18 448.839C212.98 448.564 212.605 448.363 212.279 448.313C211.929 448.288 211.554 448.363 211.278 448.589C211.003 448.814 210.803 449.14 210.753 449.49Z" fill="#FF997F"/>
<path d="M400.485 119.114L197.026 133.909L216.672 404.528L420.132 389.733L400.485 119.114Z" fill="white"/>
<path d="M171.967 259.107C176.696 251.819 181.976 244.907 187.731 238.471C190.334 235.541 193.086 232.686 196.364 230.657C200.643 228.003 205.548 226.901 210.352 225.849C226.793 222.243 244.009 219.763 261.85 217.284C268.507 216.357 269.032 218.536 269.558 222.543C269.933 225.323 269.107 228.228 267.305 230.407C260.724 238.396 249.364 238.646 238.754 241.176C235.476 241.952 234.675 244.181 231.322 246.836C224.666 252.095 217.884 255.125 217.809 256.803C216.333 282.974 230.897 301.356 207.3 324.972C201.519 330.782 193.437 299.978 185.679 299.553L158.754 307.492C156.102 302.583 162.958 280.069 164.46 274.509C165.936 268.974 168.864 263.916 171.967 259.107Z" fill="#FDBAA0"/>
<path d="M220.512 300.88C217.909 313.853 210.327 325.623 199.592 333.337C199.067 333.712 198.466 332.886 198.992 332.51C209.527 324.972 216.959 313.452 219.511 300.755C219.611 300.079 220.637 300.229 220.512 300.88Z" fill="#E79780"/>
<path d="M266.58 220.69C261.7 224.872 250.765 227.302 247.062 220.39C246.761 219.813 247.712 219.438 248.012 220.014C249.714 223.219 253.618 223.946 256.946 223.545C260.199 223.144 263.477 222.017 265.979 219.864C266.48 219.438 267.08 220.264 266.58 220.69Z" fill="#E79780"/>
<path d="M238.404 241.326C230.546 248.413 222.239 255.776 211.804 258.631C211.178 258.806 210.803 257.855 211.428 257.679C221.788 254.849 229.996 247.537 237.803 240.499C238.303 240.074 238.904 240.9 238.404 241.326Z" fill="#E79780"/>
<path d="M218.31 256.778C218.485 266.771 219.286 276.763 220.687 286.655C220.787 287.306 219.761 287.407 219.661 286.755C218.26 276.863 217.459 266.871 217.284 256.878C217.284 256.227 218.31 256.127 218.31 256.778Z" fill="#E79780"/>
<path d="M256.095 237.844C250.14 240.073 243.859 241.3 237.503 241.451C236.852 241.476 236.727 240.449 237.403 240.424C243.683 240.274 249.864 239.097 255.72 236.893C256.345 236.667 256.721 237.619 256.095 237.844Z" fill="#E79780"/>
<path d="M203.221 226.675C198.692 227.877 194.888 230.307 191.685 233.663C187.982 237.544 184.679 241.852 181.225 245.984C174.794 253.647 168.063 261.311 163.959 270.577C163.634 271.303 164.785 271.754 165.085 271.053C168.989 262.237 175.37 254.9 181.501 247.562C184.754 243.68 187.957 239.698 191.31 235.891C194.638 232.11 198.466 229.205 203.396 227.902C204.147 227.702 203.972 226.475 203.221 226.675Z" fill="#E79780"/>
<path d="M408.999 129.968L323.206 113.479L306.202 202.097L391.995 218.586L408.999 129.968Z" fill="#B9E4F0"/>
<path d="M357.164 123.87C357.214 124.346 357.314 124.897 357.214 125.373C357.014 126.249 355.938 126.975 355.413 125.823C355.087 125.122 355.413 123.845 355.463 123.094C355.588 121.366 355.613 119.613 355.838 117.885C355.963 117.033 356.138 116.182 356.589 115.455C357.114 114.604 358.641 113.352 359.466 114.754C359.867 115.455 359.692 116.607 359.692 117.384C359.692 118.436 359.692 119.462 359.692 120.514C359.692 121.341 360.993 121.516 360.993 120.664C360.993 118.861 361.243 116.908 360.918 115.13C360.743 114.103 360.167 113.176 359.116 112.926C356.063 112.175 354.737 115.881 354.512 118.185C354.312 120.114 354.237 122.067 354.111 123.995C354.036 125.122 353.911 126.5 354.787 127.376C355.563 128.127 356.764 128.002 357.565 127.351C358.641 126.45 358.641 124.972 358.466 123.695C358.34 122.843 357.039 123.044 357.164 123.87Z" fill="#FF8F65"/>
<path d="M224.766 148.914C225.567 147.762 225.542 146.51 224.791 145.358C224.441 144.807 223.69 145.183 223.565 145.709C222.714 149.941 222.163 154.199 221.863 158.481C221.838 159.007 222.314 159.383 222.814 159.182C226.142 157.93 228.72 155.25 229.77 151.845C229.871 151.494 229.77 151.093 229.395 150.943C228.169 150.467 227.443 151.669 227.318 152.771C227.168 154.149 227.518 155.927 228.469 156.978C230.847 159.558 233.349 153.598 233.624 151.97C233.774 151.093 232.423 150.943 232.273 151.794C231.998 153.372 231.697 156.978 234.125 157.054C236.427 157.104 238.128 153.447 238.854 151.719C239.104 151.143 238.504 150.642 237.953 150.843C235.876 151.594 236.176 154.725 238.128 155.451C240.981 156.503 243.058 153.372 242.958 150.918C242.933 150.442 242.382 150.267 242.007 150.392C239.78 151.168 240.105 154.399 242.257 155.05C245.16 155.927 246.761 152.871 246.636 150.442C246.586 149.641 245.385 149.716 245.285 150.467C245.06 151.995 245.285 153.422 245.986 154.8C246.136 155.075 246.411 155.225 246.711 155.2C248.388 155.025 249.939 154.549 251.441 153.748C252.216 153.322 251.666 152.07 250.89 152.496C249.514 153.247 248.063 153.673 246.511 153.848C246.761 153.973 246.987 154.123 247.237 154.249C246.636 153.072 246.461 151.92 246.636 150.617C246.186 150.617 245.735 150.642 245.285 150.642C245.335 151.87 244.935 153.522 243.483 153.773C242.157 153.998 241.031 152.195 242.557 151.644C242.232 151.469 241.932 151.294 241.607 151.118C241.657 152.471 240.831 154.073 239.354 154.224C238.153 154.349 237.102 152.596 238.504 152.095C238.203 151.794 237.903 151.494 237.603 151.218C237.027 152.571 236.302 153.923 235.251 154.975C234.825 155.401 234.675 155.676 234.075 155.451C233.549 155.25 233.574 155.05 233.524 154.524C233.424 153.673 233.499 152.846 233.649 151.995C233.199 151.945 232.748 151.895 232.298 151.819C232.073 153.147 231.547 154.374 230.671 155.376C229.745 156.453 229.045 155.501 228.82 154.499C228.77 154.249 228.644 152.12 228.895 152.22C228.77 151.92 228.644 151.619 228.519 151.319C227.543 154.399 225.316 156.778 222.289 157.93C222.614 158.156 222.914 158.406 223.239 158.631C223.515 154.349 224.09 150.066 224.941 145.859C224.541 145.984 224.14 146.084 223.715 146.21C224.115 146.836 224.09 147.512 223.665 148.113C223.164 148.814 224.265 149.641 224.766 148.914Z" fill="#496374"/>
<path d="M260.074 152.17C261.475 150.943 262.701 149.54 263.727 147.987C263.952 147.662 263.902 147.061 263.452 146.936C261.6 146.435 260.549 149.34 260.749 150.817C261.075 153.146 263.177 153.121 264.928 152.37C266.129 151.844 269.658 150.367 269.107 148.588C268.582 146.885 266.805 148.138 266.705 149.39C266.555 151.268 268.306 152.445 270.008 152.395C271.309 152.345 272.61 151.794 273.812 151.268C274.762 150.842 276.214 150.367 276.889 149.515C277.94 148.188 276.314 146.51 274.888 147.236C273.261 148.088 273.736 150.241 275.013 151.143C276.739 152.37 280.318 151.769 281.794 150.316C283.02 149.089 282.645 146.61 280.718 146.46C280.368 146.435 279.992 146.685 279.967 147.061C279.842 148.563 280.943 149.415 282.094 150.166C283.871 151.318 285.748 152.32 287.674 153.171C288.475 153.522 289.001 152.27 288.2 151.894C286.849 151.293 285.522 150.642 284.246 149.891C283.396 149.39 281.243 148.463 281.344 147.211C281.093 147.411 280.843 147.612 280.593 147.812C281.644 147.887 281.143 149.114 280.718 149.49C280.343 149.816 279.692 149.991 279.217 150.091C278.241 150.342 276.764 150.692 275.889 150.041C275.763 149.916 275.613 149.791 275.488 149.665C275.088 148.639 275.163 148.338 275.713 148.764C275.288 148.989 274.888 149.24 274.462 149.44C273.561 149.891 272.66 150.291 271.71 150.617C270.759 150.943 269.157 151.393 268.432 150.392C268.081 149.916 268.457 148.964 267.581 149.164C267.331 149.215 266.705 149.816 266.48 149.966C265.779 150.417 264.653 151.218 263.802 151.343C260.549 151.769 263.127 148.213 262.976 148.188C262.876 147.837 262.776 147.487 262.701 147.136C261.725 148.613 260.599 149.916 259.298 151.068C258.572 151.694 259.423 152.771 260.074 152.17Z" fill="#496374"/>
<path d="M245.035 261.161C247.237 258.081 247.762 254.224 246.511 250.643C246.336 250.117 245.41 250.092 245.26 250.668C243.533 256.929 242.983 263.415 243.684 269.901C243.734 270.327 244.259 270.628 244.634 270.427C249.589 267.948 252.567 262.538 252.016 257.004C251.941 256.202 250.79 256.303 250.665 257.029C250.039 260.31 250.865 263.64 252.892 266.295C253.092 266.57 253.593 266.671 253.843 266.42C257.471 262.889 259.723 258.256 260.124 253.197C260.174 252.446 259.073 252.095 258.823 252.846C258.072 254.9 257.847 258.581 260.524 259.433C261.525 259.759 262.351 259.233 262.851 258.356C263.727 256.853 264.228 254.975 264.828 253.347C265.053 252.721 264.328 252.095 263.777 252.546C261.951 254.049 263.552 256.954 265.704 256.904C268.907 256.828 270.308 252.796 270.458 250.192C270.509 249.541 269.633 249.115 269.232 249.691C268.407 250.868 269.182 252.346 270.534 252.696C272.26 253.147 273.436 251.419 274.112 250.117C273.687 250.067 273.236 250.017 272.811 249.966C273.011 254.524 272.911 259.057 272.51 263.59C272.961 263.59 273.411 263.565 273.862 263.565C273.461 259.007 276.414 255.125 279.092 251.745C279.642 251.043 278.541 250.217 277.991 250.918C275.063 254.65 272.085 258.782 272.51 263.766C272.585 264.542 273.812 264.517 273.862 263.74C274.262 259.082 274.362 254.424 274.162 249.741C274.137 248.99 273.136 249.065 272.861 249.591C272.611 250.042 272.36 250.517 271.985 250.893C271.785 251.144 271.509 251.319 271.184 251.394C270.534 251.369 270.258 251.068 270.358 250.517C269.958 250.342 269.533 250.192 269.132 250.017C269.032 251.669 268.582 253.573 267.306 254.75C266.805 255.226 266.054 255.676 265.329 255.476C264.653 255.276 263.902 254.199 264.628 253.598C264.278 253.322 263.927 253.072 263.577 252.796C263.277 253.623 262.951 254.449 262.651 255.276C262.401 255.902 262.076 257.404 261.55 257.855C260.749 258.556 259.999 257.279 259.799 256.653C259.473 255.576 259.723 254.324 260.074 253.322C259.648 253.197 259.198 253.097 258.773 252.972C258.397 257.655 256.37 262.012 252.992 265.293C253.318 265.343 253.643 265.368 253.943 265.418C252.116 263.039 251.441 260.109 251.991 257.154C251.541 257.154 251.09 257.179 250.64 257.179C251.14 262.063 248.463 266.921 244.084 269.125C244.409 269.3 244.709 269.475 245.035 269.651C244.384 263.44 244.885 257.179 246.536 251.144C246.111 251.144 245.685 251.143 245.285 251.169C246.386 254.274 245.886 257.655 243.984 260.31C243.433 261.036 244.534 261.862 245.035 261.161Z" fill="#496374"/>
<path d="M290.827 244.807C291.853 243.58 292.054 242.027 291.403 240.6C291.178 240.099 290.577 240.099 290.227 240.449C288.225 242.528 289.551 245.308 290.827 247.386C290.978 247.612 291.403 247.712 291.628 247.587C294.055 246.26 296.207 244.331 297.509 241.852C298.359 240.249 298.635 237.97 296.783 236.993C296.433 236.818 296.032 237.068 295.882 237.369C295.056 239.022 294.906 240.95 295.532 242.678C296.107 244.256 297.208 245.007 298.71 244.006C300.511 242.803 302.238 241.101 303.439 239.272C304.215 238.07 305.116 235.866 303.639 234.789C302.138 233.688 301.562 235.616 301.462 236.743C301.312 238.321 301.863 240.199 303.564 240.725C305.291 241.226 307.118 239.773 308.269 238.621C309.67 237.219 310.546 235.466 310.971 233.537C311.021 233.262 310.821 232.911 310.546 232.811C308.169 231.96 307.443 235.866 310.145 236.192C311.547 236.367 312.598 235.366 313.474 234.414C314.6 233.187 315.551 231.834 315.325 230.081C315.25 229.605 314.6 229.305 314.224 229.656C312.898 230.858 313.123 232.961 314.65 233.888C316.752 235.19 319.054 233.838 320.805 232.611C321.531 232.11 320.68 231.033 319.955 231.534C319.004 232.21 317.978 232.936 316.777 233.011C315.726 233.087 313.724 231.909 315.075 230.707C314.7 230.557 314.349 230.407 313.974 230.282C314.149 231.534 313.323 232.536 312.548 233.412C312.222 233.763 311.922 234.138 311.522 234.414C311.272 234.614 310.996 234.764 310.671 234.84C309.995 234.965 309.795 234.714 310.07 234.063C309.92 233.813 309.795 233.587 309.645 233.337C309.195 235.34 308.094 237.144 306.467 238.396C305.341 239.272 303.564 240.074 302.964 238.145C302.914 237.945 302.989 236.217 302.964 236.217C303.364 236.492 302.889 237.569 302.739 237.82C301.888 239.573 299.986 241.651 298.284 242.628C297.709 242.954 297.334 243.304 296.983 242.503C296.783 242.052 296.658 241.576 296.583 241.101C296.433 239.974 296.683 238.897 297.183 237.87C296.883 237.995 296.583 238.12 296.283 238.246C297.909 239.097 295.957 241.902 295.307 242.728C294.181 244.206 292.729 245.408 291.078 246.31C291.353 246.385 291.628 246.435 291.878 246.51C290.903 244.932 289.776 242.854 291.303 241.251C290.903 241.201 290.527 241.151 290.127 241.101C290.577 242.102 290.427 243.104 289.726 243.955C289.176 244.657 290.252 245.483 290.827 244.807Z" fill="#496374"/>
<path d="M239.405 295.169C241.957 293.241 244.835 290.461 243.333 286.98C243.108 286.479 242.507 286.479 242.157 286.83C239.379 289.81 239.304 294.644 241.932 297.749C242.107 297.974 242.457 298.1 242.733 297.949C247.012 295.72 250.29 292.039 251.991 287.531C252.116 287.18 251.966 286.78 251.616 286.63C249.839 285.953 248.138 287.356 247.912 289.134C247.737 290.611 248.338 294.193 250.39 294.042C251.391 293.967 252.442 293.116 253.292 292.59C254.293 291.964 255.244 291.213 255.97 290.286C257.296 288.608 257.797 286.204 256.671 284.3C256.395 283.825 255.645 283.699 255.419 284.325C254.619 286.429 254.469 288.683 255.119 290.862C255.695 292.815 256.721 293.642 258.597 292.59C262.151 290.586 264.478 286.805 264.703 282.748C264.753 281.946 263.752 281.721 263.402 282.397C262.051 284.952 262.951 288.282 265.404 289.81C265.679 289.985 265.979 290.01 266.23 289.81C267.531 288.833 268.707 287.656 269.633 286.304C270.358 285.252 271.509 283.599 271.484 282.272C271.459 281.295 270.584 280.694 269.658 280.995C268.382 281.395 268.331 282.923 268.407 284.025C268.582 286.705 270.308 288.733 272.961 287.055C275.688 285.327 277.34 282.247 277.49 279.041C277.515 278.59 277.165 278.24 276.714 278.29C274.187 278.54 273.787 281.996 275.688 283.324C278.641 285.402 281.669 282.372 283.345 280.193C283.896 279.492 282.795 278.666 282.244 279.367C281.193 280.744 279.967 282.397 278.091 282.572C277.29 282.648 276.189 282.372 275.914 281.521C275.638 280.719 276.064 279.742 276.939 279.642C276.689 279.392 276.414 279.141 276.164 278.891C276.089 280.769 275.488 282.522 274.337 284C273.812 284.676 273.186 285.277 272.485 285.753C271.159 286.68 270.283 286.429 269.908 284.901C269.783 284.351 269.508 282.998 269.883 282.547C270.108 282.272 269.708 283.474 269.733 283.399C269.533 283.875 269.282 284.325 269.032 284.776C268.106 286.329 266.855 287.656 265.404 288.758C265.679 288.758 265.954 288.758 266.23 288.758C264.228 287.531 263.577 285.027 264.653 282.948C264.228 282.823 263.777 282.723 263.352 282.597C263.177 285.503 261.9 288.257 259.698 290.186C259.173 290.636 258.522 291.213 257.872 291.463C256.796 291.864 256.52 290.962 256.295 290.035C255.87 288.307 256.07 286.529 256.696 284.876C256.27 284.876 255.845 284.876 255.444 284.901C256.946 287.456 254.894 289.935 252.817 291.338C252.266 291.713 251.716 292.039 251.14 292.339C250.44 292.74 249.989 292.565 249.739 291.789C249.514 291.112 249.264 290.386 249.289 289.66C249.314 288.733 249.964 287.481 251.115 287.932C250.99 287.631 250.865 287.331 250.74 287.03C249.164 291.213 246.161 294.644 242.207 296.722C242.482 296.797 242.758 296.847 243.008 296.922C240.756 294.243 240.881 290.236 243.258 287.681C242.858 287.631 242.482 287.581 242.082 287.531C243.283 290.361 240.556 292.565 238.554 294.093C237.853 294.618 238.704 295.695 239.405 295.169Z" fill="#496374"/>
<path d="M293.28 272.38C294.581 270.928 295.307 269.2 295.482 267.271C295.532 266.695 294.856 266.27 294.381 266.645C292.929 267.797 292.729 269.55 292.979 271.303C293.18 272.606 293.48 274.935 295.282 274.609C296.983 274.284 298.735 272.255 299.786 270.978C301.187 269.3 302.213 267.347 302.864 265.268C303.089 264.517 302.213 264.016 301.688 264.592C298.56 268.098 304.315 271.404 303.789 274.86C304.19 274.734 304.59 274.634 305.016 274.509C303.764 272.856 305.466 271.078 306.442 269.801C307.318 268.674 308.093 267.472 308.744 266.22C309.32 265.093 310.946 261.912 308.594 261.586C308.369 261.561 308.093 261.662 307.968 261.862C307.243 262.964 306.617 264.366 306.992 265.719C307.318 266.971 308.494 267.697 309.77 267.572C313.173 267.271 315.475 263.314 316.176 260.359C316.351 259.633 315.35 259.408 314.95 259.858C313.348 261.737 315.025 264.517 317.327 264.542C320.63 264.592 321.906 261.136 322.457 258.481C322.607 257.78 321.631 257.479 321.231 257.98C319.354 260.334 322.432 263.34 324.709 261.261C325.36 260.66 324.509 259.583 323.858 260.184C322.832 261.136 321.431 259.909 322.332 258.807C321.931 258.631 321.506 258.481 321.106 258.306C320.78 259.858 320.355 261.637 318.979 262.613C318.278 263.114 317.327 263.365 316.526 262.939C315.701 262.513 315.425 261.361 316.026 260.66C315.626 260.485 315.2 260.334 314.8 260.159C314.299 262.188 313.148 264.141 311.447 265.393C310.621 265.994 308.869 266.796 308.319 265.418C307.968 264.542 308.594 263.365 309.069 262.663C308.869 262.764 308.644 262.839 308.444 262.939C308.894 263.014 306.992 266.595 306.867 266.796C306.167 267.948 305.316 268.949 304.515 270.026C303.339 271.604 302.613 273.633 303.94 275.335C304.315 275.811 305.066 275.561 305.166 274.985C305.416 273.432 304.79 272.105 303.99 270.803C303.039 269.3 301.312 267.096 302.814 265.393C302.413 265.168 302.038 264.942 301.637 264.717C300.812 267.397 299.335 269.801 297.258 271.679C296.808 272.08 296.308 272.581 295.757 272.856C295.457 272.956 295.181 273.031 294.881 273.132C294.856 273.031 294.806 272.931 294.781 272.831C294.606 272.556 294.556 272.005 294.506 271.679C294.231 270.302 294.08 268.699 295.307 267.722C294.931 267.522 294.581 267.296 294.206 267.096C294.055 268.824 293.43 270.277 292.279 271.554C291.603 272.205 292.704 273.031 293.28 272.38Z" fill="#496374"/>
<path d="M286.498 306.639C287.624 305.187 288.6 303.634 289.376 301.956C289.826 301.004 290.953 299.151 289.877 298.224C288.901 297.398 288.15 298.3 287.95 299.251C287.549 301.054 287.85 302.983 288.375 304.711C288.5 305.111 289.126 305.262 289.426 304.986C291.378 303.183 293.079 301.154 294.431 298.85C295.206 297.523 296.683 295.219 294.981 294.017C294.656 293.767 294.08 293.867 293.93 294.292C293.079 296.997 292.904 299.777 293.455 302.557C293.555 303.058 294.13 303.308 294.556 302.983C297.784 300.528 300.286 297.348 301.888 293.641C301.462 293.591 301.012 293.541 300.586 293.491C300.987 295.57 301.387 297.623 301.788 299.702C301.888 300.253 302.438 300.403 302.889 300.128C305.516 298.525 306.942 295.695 306.867 292.64C306.867 292.364 306.542 292.064 306.267 292.064C304.84 292.064 304.34 293.967 305.816 294.443C307.718 295.094 308.819 292.214 309.27 290.887C309.52 290.16 308.594 289.609 308.093 290.21C307.017 291.488 305.992 294.242 307.368 295.695C308.769 297.173 311.096 294.593 311.947 293.616C312.523 292.965 311.447 292.139 310.846 292.79C310.496 293.191 310.145 293.541 309.72 293.867C309.495 294.042 309.27 294.217 309.019 294.393C308.494 294.843 308.219 294.843 308.219 294.368C307.568 293.491 308.644 291.638 309.169 291.037C308.769 290.811 308.394 290.586 307.993 290.361C307.793 290.987 306.967 293.416 306.092 293.416C305.891 293.216 305.691 293.04 305.491 292.84C305.566 295.419 304.19 297.723 302.013 299.051C302.388 299.201 302.738 299.351 303.114 299.477C302.713 297.398 302.313 295.344 301.913 293.266C301.788 292.615 300.887 292.489 300.611 293.115C299.085 296.622 296.733 299.602 293.68 301.906C294.055 302.056 294.406 302.206 294.781 302.332C294.256 299.802 294.381 297.273 295.156 294.793C294.806 294.894 294.456 294.994 294.105 295.069C295.156 295.82 292.529 299.226 292.054 299.902C291.028 301.355 289.851 302.657 288.55 303.859C288.901 303.959 289.251 304.035 289.601 304.135C289.251 302.983 289.076 301.806 289.126 300.604C289.151 300.278 289.426 299.627 289.026 299.627C288.625 299.627 288.525 300.428 288.375 300.754C287.599 302.557 286.573 304.235 285.372 305.788C284.872 306.489 285.948 307.315 286.498 306.639Z" fill="#496374"/>
<path d="M264.203 351.418C262.151 346.359 257.747 342.402 252.542 340.824C249.789 339.998 247.087 339.973 244.234 340.323C240.23 340.824 236.627 340.674 233.199 338.32C232.823 338.069 232.098 338.22 232.098 338.796C232.098 348.037 240.155 355.124 249.339 353.847C252.016 353.471 254.594 352.645 257.296 352.419C258.722 352.319 260.174 352.344 261.6 352.495C262.526 352.595 263.427 352.695 263.927 353.571C264.228 354.097 264.378 354.824 264.528 355.425C265.929 360.634 266.229 366.068 265.454 371.403C265.329 372.279 266.68 372.429 266.805 371.578C267.531 366.469 267.33 361.235 266.104 356.201C265.654 354.373 265.304 352.119 263.302 351.443C261.125 350.716 258.322 350.917 256.07 351.167C253.392 351.493 250.815 352.394 248.113 352.595C245.535 352.795 242.908 352.244 240.631 351.042C236.176 348.713 233.449 343.955 233.449 338.946C233.074 339.096 232.723 339.246 232.348 339.422C234.875 341.15 237.778 342.101 240.831 342.026C244.009 341.951 247.062 341.125 250.24 341.701C255.87 342.702 260.774 346.684 262.901 351.994C263.277 352.77 264.528 352.244 264.203 351.418Z" fill="#496374"/>
<path d="M266.78 364.892C270.609 358.255 276.289 351.318 284.572 350.867C286.473 350.767 288.525 350.992 290.177 352.019C290.527 352.244 291.328 352.72 291.503 353.146C291.703 353.697 291.203 354.223 290.903 354.599C290.327 355.35 289.726 356.101 289.101 356.828C287.8 358.305 286.323 359.682 284.497 360.509C282.745 361.285 280.843 361.511 278.941 361.536C274.963 361.611 270.959 361.01 267.155 362.487C266.33 362.813 266.88 364.065 267.706 363.74C271.96 362.087 276.564 363.239 280.993 362.788C285.397 362.337 288.5 359.833 291.178 356.477C292.129 355.3 293.755 353.822 292.554 352.295C291.453 350.867 289.651 350.091 287.95 349.74C283.846 348.889 279.517 350.191 276.014 352.345C271.509 355.15 268.306 359.557 265.704 364.09C265.254 364.816 266.33 365.643 266.78 364.892Z" fill="#496374"/>
<path d="M267.881 362.061C268.006 356.752 271.234 352.219 272.36 347.16C273.336 342.802 273.086 338.219 271.81 333.962C271.084 331.583 268.907 324.42 265.204 326.825C261.1 329.479 264.153 335.089 265.754 338.169C268.457 343.328 269.357 349.189 268.382 354.924C268.231 355.8 269.583 355.95 269.733 355.099C270.433 351.067 270.233 346.91 269.132 342.978C268.582 341.049 267.831 339.221 266.905 337.443C265.929 335.615 264.728 333.737 264.578 331.608C264.503 330.481 264.728 329.179 265.554 328.327C266.93 326.925 267.881 328.477 268.532 329.654C269.533 331.458 270.283 333.411 270.809 335.415C271.81 339.346 271.86 343.504 270.909 347.436C269.708 352.369 266.655 356.727 266.53 361.911C266.505 362.787 267.856 362.938 267.881 362.061Z" fill="#496374"/>
<path d="M284.396 336.566C283.27 334.763 283.07 332.284 284.797 330.781C285.623 330.08 287.174 329.479 287.599 330.932C287.85 331.783 287.424 333.06 287.199 333.862C286.999 334.663 288.175 334.813 288.5 334.212C288.65 333.912 288.826 333.611 289.026 333.361C289.176 333.06 289.426 332.86 289.726 332.76C290.052 332.459 290.277 332.584 290.377 333.135C290.752 333.737 290.752 333.737 290.402 334.262C290.152 334.613 289.877 334.939 289.501 335.189C288.225 336.116 286.473 336.141 284.972 336.216C284.096 336.266 284.296 337.618 285.172 337.568C287.8 337.443 292.254 336.667 292.154 333.11C292.129 331.983 291.278 331.232 290.177 331.232C288.675 331.232 287.875 332.509 287.249 333.686C287.675 333.812 288.125 333.912 288.55 334.037C288.926 332.61 289.451 330.431 288.25 329.229C287.299 328.302 285.748 328.603 284.697 329.204C281.644 330.932 281.619 334.763 283.32 337.443C283.796 338.144 284.872 337.293 284.396 336.566Z" fill="#496374"/>
<path d="M256.37 331.182C256.345 328.903 256.42 324.971 253.242 324.796C252.292 324.746 251.291 325.196 250.865 326.073C250.29 327.275 250.99 328.477 251.641 329.479C251.916 329.128 252.166 328.778 252.442 328.427C251.316 328.051 250.039 327.701 248.963 328.452C248.113 329.053 247.862 330.105 248.363 331.032C249.639 333.461 253.743 332.584 255.745 331.808C256.571 331.482 256.02 330.23 255.194 330.556C254.093 330.982 252.942 331.232 251.766 331.207C251.366 331.182 249.989 331.132 249.914 330.756C250.19 330.305 250.465 329.83 250.715 329.379C251.14 329.454 251.541 329.554 251.941 329.704C252.617 329.93 253.117 329.229 252.742 328.652C252.292 328.001 251.466 326.774 252.617 326.248C253.368 325.898 254.068 326.474 254.444 327.05C255.194 328.202 254.994 329.729 255.019 331.032C255.019 331.883 256.37 332.058 256.37 331.182Z" fill="#496374"/>
<path d="M343.977 353.446C345.428 351.844 346.83 350.015 347.655 348.012C348.181 346.76 348.857 344.331 347.756 343.153C346.78 342.102 345.378 343.028 344.953 344.08C344.578 344.982 344.503 346.059 344.327 347.035C344.077 348.338 343.877 349.64 343.702 350.942C343.527 352.244 343.376 353.547 343.251 354.874C343.176 355.776 342.876 356.902 343.101 357.804C343.477 359.307 345.078 358.981 346.079 358.33C347.055 357.704 353.986 352.319 350.683 351.218C350.308 351.092 349.958 351.243 349.782 351.593C349.132 352.996 348.731 354.899 349.382 356.377C349.958 357.704 351.209 357.754 352.36 357.103C353.561 356.427 357.74 352.62 355.338 351.243C355.037 351.067 354.612 351.042 354.387 351.368C353.686 352.42 353.586 353.522 353.861 354.749C354.036 355.6 354.287 356.978 355.263 357.228C356.263 357.478 357.189 356.352 357.765 355.75C358.841 354.649 359.692 353.421 360.417 352.094C360.567 351.844 360.417 351.443 360.192 351.293C359.366 350.717 358.416 351.193 358.315 352.194C358.215 353.021 358.34 355.074 359.091 355.625C359.942 356.226 361.418 355.5 362.119 354.974C363.22 354.148 363.871 352.946 363.996 351.618C364.096 350.817 363.045 350.616 362.695 351.268C362.144 352.269 361.744 353.547 362.519 354.548C363.095 355.275 364.046 355.55 364.872 355.099C365.647 354.699 365.097 353.421 364.321 353.847C363.595 353.396 363.37 352.921 363.645 352.395C363.72 352.169 363.846 351.969 363.946 351.769C363.52 351.643 363.07 351.543 362.644 351.418C362.519 352.67 361.794 353.772 360.593 354.248C359.917 354.523 359.892 354.699 359.867 353.997C359.842 353.396 359.842 352.695 359.341 352.345C359.266 352.069 359.191 351.819 359.116 351.543C358.365 352.895 357.44 354.123 356.314 355.2C355.638 355.826 355.488 355.725 355.263 354.849C355.012 353.922 354.862 352.996 355.438 352.144C355.112 352.194 354.787 352.244 354.487 352.269C355.187 352.67 352.635 355.149 352.31 355.4C352.085 355.55 351.684 355.951 351.409 355.976C350.858 356.026 350.533 355.325 350.433 354.924C350.208 353.997 350.633 352.845 351.009 352.019C350.708 352.144 350.408 352.269 350.108 352.395C350.233 352.445 347.881 354.949 347.706 355.124C347.13 355.65 345.929 356.978 345.178 357.153C343.927 357.428 344.452 356.151 344.503 355.45C344.578 354.749 344.628 354.048 344.703 353.346C344.853 352.119 345.003 350.917 345.203 349.69C345.403 348.463 345.604 347.261 345.854 346.059C345.929 345.658 346.004 343.955 346.83 344.255C347.18 344.381 346.755 346.284 346.68 346.534C346.054 348.788 344.427 350.817 342.876 352.52C342.3 353.271 343.402 354.098 343.977 353.446Z" fill="#FF8D67"/>
<path d="M374.681 353.798C376.157 353.121 376.933 351.694 376.632 350.116C376.532 349.54 375.782 349.34 375.406 349.816C374.555 350.918 374.08 352.395 374.53 353.747C374.831 354.674 375.556 355.3 376.557 355.075C378.985 354.524 381.587 352.746 382.188 350.266C382.363 349.515 381.112 349.189 380.886 349.916C380.536 351.018 380.236 352.22 380.836 353.297C381.287 354.098 382.188 354.674 383.138 354.474C384.064 354.273 384.94 353.372 385.566 352.721C386.442 351.794 386.942 350.792 386.842 349.49C386.792 348.789 385.766 348.739 385.541 349.34C384.865 350.993 384.615 354.148 387.292 353.973C389.544 353.823 391.521 351.569 392.422 349.69C392.797 348.889 391.571 348.413 391.146 349.164C390.495 350.367 390.12 352.57 392.047 352.821C393.723 353.046 394.799 350.767 395.15 349.465C395.35 348.664 394.174 348.513 393.848 349.114C393.323 350.091 393.598 351.168 394.474 351.819C395.175 352.345 396 351.243 395.3 350.717C394.874 350.367 394.799 349.991 395.1 349.615C394.674 349.49 394.224 349.39 393.798 349.265C393.648 349.816 393.348 350.742 392.797 351.043C391.797 351.594 392.172 350.141 392.447 349.64C392.022 349.465 391.596 349.29 391.171 349.114C390.645 350.216 389.895 351.143 388.869 351.819C388.343 352.17 387.242 352.871 386.617 352.295C385.966 351.694 386.592 350.442 386.842 349.791C386.417 349.74 385.966 349.69 385.541 349.64C385.641 350.867 384.715 351.719 383.864 352.445C383.389 352.846 382.888 353.397 382.163 352.696C381.662 352.195 382.063 350.918 382.213 350.392C381.787 350.266 381.337 350.166 380.911 350.041C380.561 351.544 379.185 352.42 377.884 353.046C377.333 353.297 376.707 353.773 376.182 353.422C375.306 352.821 376.107 351.218 376.582 350.592C376.182 350.492 375.757 350.392 375.356 350.291C375.531 351.268 375.131 352.12 374.205 352.52C373.329 352.896 373.855 354.173 374.681 353.798Z" fill="#FF8D67"/>
<path d="M359.266 367.447C361.668 366.595 363.52 364.917 364.671 362.688C364.997 362.087 364.121 361.436 363.62 361.887C362.494 362.889 361.744 364.266 361.744 365.819C361.744 367.071 362.369 368.098 363.695 368.173C366.723 368.348 370.727 367.297 371.252 363.815C371.352 363.164 370.627 362.914 370.151 363.189C369.225 363.74 368.275 364.617 368.7 365.819C369 366.721 369.801 366.921 370.652 366.746C373.054 366.27 374.806 364.291 375.356 361.987C375.481 361.461 374.831 361.086 374.405 361.286C372.078 362.263 372.854 365.544 374.981 366.22C377.859 367.146 381.337 364.592 381.512 361.687C381.537 361.236 381.187 360.885 380.736 360.935C378.209 361.186 377.859 364.617 379.885 365.819C382.638 367.447 385.165 364.892 386.341 362.613C386.642 362.037 385.941 361.562 385.441 361.737C383.664 362.338 383.839 364.942 385.341 365.794C387.818 367.196 390.22 364.266 391.046 362.263C391.321 361.587 390.545 361.111 389.995 361.461C388.694 362.313 388.919 364.316 390.27 365.018C392.297 366.069 394.074 364.191 395 362.588C394.599 362.413 394.174 362.263 393.773 362.087C393.648 362.989 393.573 364.016 394.274 364.717C394.824 365.243 395.575 365.393 396.251 365.043C397.026 364.642 396.501 363.39 395.7 363.79C395.125 363.34 394.949 362.839 395.125 362.238C395.225 361.612 394.249 361.136 393.898 361.737C393.498 362.388 393.098 363.139 392.422 363.54C391.947 363.841 391.646 363.941 391.096 363.715C390.595 363.515 390.095 362.989 390.821 362.513C390.47 362.238 390.12 361.987 389.77 361.712C389.294 362.839 388.569 364.041 387.392 364.517C386.867 364.742 386.116 364.792 385.716 364.316C385.366 363.891 385.391 363.139 385.966 362.964C385.666 362.663 385.366 362.363 385.065 362.087C384.415 363.34 383.464 364.717 381.937 364.892C381.262 364.967 380.286 364.717 379.986 364.016C379.66 363.265 380.136 362.338 380.936 362.263C380.686 362.012 380.411 361.762 380.161 361.511C380.061 363.214 378.584 364.542 376.958 364.917C376.132 365.093 375.006 365.118 374.53 364.266C374.205 363.69 374.28 362.814 374.956 362.538C374.631 362.313 374.33 362.062 374.005 361.837C373.73 362.964 373.079 363.916 372.153 364.592C371.753 364.892 371.302 365.143 370.827 365.293C370.201 365.644 370.051 365.443 370.327 364.692C370.552 364.517 370.777 364.391 371.002 364.241C370.627 364.041 370.276 363.815 369.901 363.615C369.576 365.794 367.324 366.47 365.422 366.67C364.446 366.771 363.12 366.921 363.145 365.543C363.145 364.542 363.795 363.565 364.496 362.914C364.146 362.638 363.795 362.388 363.445 362.113C362.444 364.041 360.818 365.418 358.766 366.145C357.915 366.47 358.44 367.747 359.266 367.447Z" fill="#FF8D67"/>
<path d="M375.181 376.486C376.282 375.61 377.408 374.733 378.509 373.832C378.684 373.682 378.809 373.431 378.759 373.181C378.509 371.853 377.108 371.728 376.557 372.88C375.957 374.157 375.681 376.011 377.108 376.887C378.459 377.714 380.886 376.712 382.213 376.161C383.989 375.435 385.491 374.157 386.016 372.279C386.116 371.903 385.966 371.353 385.466 371.327C382.913 371.252 382.137 374.483 384.239 375.835C386.767 377.438 389.569 374.884 390.02 372.404C390.12 371.878 389.519 371.503 389.069 371.703C387.442 372.404 387.442 374.758 389.019 375.56C391.346 376.762 393.198 374.333 394.024 372.479C394.374 371.653 393.148 371.177 392.747 371.954C391.471 374.458 394.624 376.361 396.476 374.458C397.101 373.832 396 373.005 395.375 373.632C394.349 374.683 393.648 373.181 393.999 372.479C393.573 372.304 393.148 372.129 392.722 371.954C392.397 372.705 391.997 373.606 391.271 374.082C390.946 374.308 390.42 374.508 390.02 374.433C389.419 374.333 388.644 373.331 389.594 372.93C389.269 372.705 388.969 372.454 388.644 372.229C388.443 373.331 387.718 374.408 386.617 374.784C385.941 375.009 385.115 374.959 384.615 374.383C384.114 373.807 384.289 372.655 385.265 372.68C385.09 372.354 384.89 372.054 384.715 371.728C384.239 373.456 382.838 374.458 381.187 375.034C380.486 375.284 379.635 375.585 378.884 375.635C376.657 375.76 377.433 374.082 377.984 372.98C377.808 373.131 377.633 373.256 377.458 373.406C377.433 373.381 377.408 373.381 377.383 373.356C377.458 373.131 377.558 372.93 377.633 372.705C376.532 373.581 375.406 374.458 374.305 375.36C373.655 375.961 374.505 377.037 375.181 376.486Z" fill="#FF8D67"/>
<path d="M334.168 234.139C336.57 231.409 340.974 231.685 344.227 232.21C348.156 232.862 352.11 233.913 356.038 232.761C358.115 232.135 359.992 231.334 362.219 231.509C364.321 231.685 366.298 232.06 368.4 231.835C370.527 231.609 372.604 231.008 374.731 230.733C376.808 230.457 378.91 230.533 381.012 230.658C385.265 230.908 389.595 231.359 393.698 229.881C394.524 229.581 393.974 228.329 393.148 228.629C389.144 230.082 384.84 229.481 380.711 229.255C378.734 229.155 376.758 229.105 374.781 229.33C372.579 229.581 370.427 230.232 368.225 230.482C365.897 230.733 363.695 230.107 361.393 230.107C359.466 230.107 357.765 230.808 355.938 231.359C351.584 232.711 347.305 231.109 342.951 230.633C339.523 230.257 335.519 230.533 333.092 233.287C332.491 233.964 333.592 234.79 334.168 234.139Z" fill="#496374"/>
<path d="M335.945 241.902C338.922 238.245 345.053 240.699 348.781 241.3C350.933 241.651 353.01 241.626 355.062 240.875C357.465 239.998 359.391 238.796 362.069 239.122C364.546 239.447 366.823 239.998 369.351 239.848C372.003 239.698 374.631 239.447 377.283 239.247C382.838 238.821 388.393 238.395 393.924 237.97C394.799 237.895 394.599 236.542 393.723 236.617C389.244 236.968 384.765 237.319 380.286 237.669C378.059 237.844 375.807 238.02 373.58 238.195C371.353 238.37 369.075 238.696 366.848 238.546C364.821 238.395 362.845 237.694 360.793 237.719C359.041 237.744 357.49 238.395 355.888 239.097C353.911 239.973 352.06 240.374 349.883 240.123C347.881 239.898 345.954 239.322 343.977 238.971C340.874 238.42 336.996 238.445 334.818 241.125C334.293 241.776 335.394 242.603 335.945 241.902Z" fill="#496374"/>
<path d="M338.172 249.966C341.074 247.262 345.829 248.639 349.332 248.915C354.086 249.265 358.766 248.113 363.47 247.687C374.055 246.736 384.74 246.385 395.35 245.759C396.226 245.709 396.025 244.357 395.15 244.407C389.544 244.732 383.964 245.058 378.359 245.383C373.004 245.709 367.599 245.859 362.244 246.41C357.264 246.936 352.56 247.888 347.555 247.337C344.177 246.986 340.023 246.31 337.296 248.864C336.695 249.465 337.546 250.567 338.172 249.966Z" fill="#496374"/>
<path d="M340.424 261.686C344.853 259.808 349.732 259.783 354.462 259.808C359.441 259.808 364.421 259.833 369.426 259.858C378.459 259.858 387.668 259.683 396.326 256.752C397.151 256.477 396.601 255.225 395.775 255.5C386.742 258.556 377.058 258.531 367.624 258.506C362.669 258.506 357.69 258.43 352.735 258.48C348.381 258.506 343.977 258.731 339.898 260.459C339.047 260.785 339.598 262.037 340.424 261.686Z" fill="#496374"/>
<path d="M341.775 267.246C345.629 265.368 349.983 265.343 354.162 265.293C358.841 265.268 363.52 265.168 368.175 264.967C377.784 264.567 387.368 263.79 396.901 262.663C397.777 262.563 397.577 261.211 396.701 261.311C386.992 262.463 377.233 263.239 367.449 263.64C362.619 263.84 357.79 263.89 352.96 263.941C348.957 263.991 344.878 264.191 341.224 265.969C340.424 266.37 340.974 267.622 341.775 267.246Z" fill="#496374"/>
<path d="M344.653 273.908C348.932 272.255 353.586 272.08 358.14 272.13C362.594 272.18 367.048 272.306 371.503 272.18C380.686 271.905 389.82 270.953 398.953 270.027C399.829 269.926 399.629 268.574 398.753 268.674C389.444 269.626 380.136 270.603 370.777 270.853C366.098 270.978 361.418 270.778 356.739 270.778C352.46 270.803 348.156 271.103 344.127 272.656C343.276 272.982 343.827 274.234 344.653 273.908Z" fill="#496374"/>
<path d="M215.908 172.331C221.037 171.504 226.267 171.229 231.447 171.579C236.327 171.905 241.131 173.082 246.036 172.807C251.09 172.506 256.145 171.429 261.125 170.628C266.205 169.801 271.259 169 276.339 168.173C282.219 167.222 288.075 166.295 293.955 165.343C294.831 165.193 294.631 163.841 293.755 163.991C283.521 165.644 273.286 167.272 263.052 168.925C257.997 169.726 252.942 170.728 247.862 171.279C242.708 171.855 237.778 170.728 232.673 170.302C227.018 169.826 221.313 170.077 215.707 170.978C214.832 171.129 215.032 172.481 215.908 172.331Z" fill="#496374"/>
<path d="M216.433 177.689C225.942 175.41 235.701 177.038 245.335 177.188C255.269 177.338 265.179 176.262 274.963 174.734C280.668 173.832 286.348 172.805 292.029 171.754C292.904 171.603 292.704 170.251 291.828 170.401C281.944 172.204 272.035 174.033 262.026 175.034C256.871 175.56 251.716 175.861 246.536 175.811C241.732 175.786 236.977 175.36 232.173 175.185C226.818 174.959 221.438 175.059 216.208 176.312C215.382 176.537 215.582 177.914 216.433 177.689Z" fill="#496374"/>
<path d="M218.835 184.852C226.167 183.625 233.599 183.074 241.031 183.249C241.907 183.274 242.082 181.922 241.206 181.897C233.649 181.722 226.092 182.248 218.635 183.5C217.759 183.65 217.959 185.002 218.835 184.852Z" fill="#496374"/>
<path d="M248.538 182.548C255.87 180.945 263.327 180.218 270.809 179.668C278.441 179.117 286.073 178.641 293.705 178.14C294.581 178.09 294.381 176.737 293.505 176.787C285.873 177.288 278.241 177.764 270.609 178.315C263.127 178.866 255.67 179.592 248.338 181.195C247.487 181.37 247.687 182.723 248.538 182.548Z" fill="#496374"/>
<path d="M218.51 194.544C222.464 193.292 226.593 193.267 230.696 193.217C234.675 193.166 238.629 192.966 242.582 192.59C250.89 191.814 259.123 190.437 267.356 189.059C268.231 188.909 268.031 187.557 267.155 187.707C258.748 189.109 250.34 190.512 241.857 191.288C237.678 191.664 233.499 191.814 229.295 191.864C225.466 191.914 221.638 192.115 217.96 193.267C217.134 193.542 217.684 194.794 218.51 194.544Z" fill="#496374"/>
<path d="M272.56 188.333C280.293 187.607 288 186.63 295.682 185.453C296.558 185.328 296.358 183.976 295.482 184.101C287.8 185.278 280.092 186.255 272.36 186.981C271.484 187.056 271.685 188.408 272.56 188.333Z" fill="#496374"/>
<path d="M220.462 201.607C227.719 201.156 234.975 200.68 242.232 200.204C243.108 200.154 242.908 198.802 242.032 198.852C234.775 199.328 227.518 199.804 220.262 200.254C219.386 200.33 219.586 201.682 220.462 201.607Z" fill="#496374"/>
<path d="M247.212 199.853C263.252 198.751 279.217 196.797 295.056 193.968C295.932 193.817 295.732 192.465 294.856 192.615C279.041 195.445 263.052 197.399 247.012 198.475C246.136 198.551 246.336 199.903 247.212 199.853Z" fill="#496374"/>
<path d="M398.478 305.137C378.634 312.149 357.314 306.965 336.845 308.643C331.19 309.094 325.61 310.121 320.23 311.949C319.404 312.224 319.955 313.477 320.78 313.201C340.699 306.414 361.994 311.623 382.463 309.845C388.093 309.344 393.673 308.293 399.028 306.414C399.854 306.089 399.303 304.836 398.478 305.137Z" fill="#496374"/>
<path d="M323.608 317.458C339.848 317.208 356.063 316.456 372.253 315.204C373.129 315.129 372.929 313.777 372.053 313.852C355.863 315.104 339.623 315.855 323.408 316.106C322.532 316.106 322.757 317.483 323.608 317.458Z" fill="#496374"/>
<path d="M380.086 315.279C386.216 314.027 392.422 313.251 398.653 312.875C399.529 312.825 399.329 311.473 398.453 311.523C392.222 311.873 386.016 312.675 379.885 313.927C379.035 314.102 379.235 315.455 380.086 315.279Z" fill="#496374"/>
<path d="M342.501 322.693C361.643 321.741 380.786 320.789 399.929 319.813C400.805 319.763 400.605 318.41 399.729 318.46C380.586 319.412 361.443 320.364 342.3 321.34C341.425 321.39 341.625 322.743 342.501 322.693Z" fill="#496374"/>
<path d="M353.661 177.389C353.536 174.058 351.784 171.103 349.457 168.799C347.38 166.721 344.127 164.642 341.124 165.994C338.522 167.146 337.771 170.227 337.896 172.806C338.046 176.162 339.523 179.493 341.199 182.348C343.351 185.954 346.104 189.11 348.881 192.215C349.457 192.866 350.533 192.04 349.958 191.364C347.48 188.609 345.028 185.804 343.001 182.699C340.999 179.618 339.147 175.812 339.222 172.055C339.248 170.502 339.648 168.699 340.924 167.697C342.701 166.295 345.028 167.146 346.704 168.273C349.757 170.377 352.135 173.833 352.31 177.615C352.335 178.466 353.686 178.266 353.661 177.389Z" fill="white"/>
<path d="M353.636 177.314C355.338 174.584 357.39 171.153 360.818 170.477C362.244 170.202 363.921 170.377 365.097 171.328C366.798 172.731 366.573 175.135 365.697 176.938C364.871 178.641 363.495 180.094 362.269 181.496C361.093 182.849 359.892 184.201 358.616 185.478C356.038 188.033 353.186 190.287 349.857 191.739C349.057 192.09 349.582 193.342 350.408 192.991C354.462 191.213 357.815 188.333 360.818 185.128C362.369 183.475 363.871 181.772 365.272 179.994C366.573 178.316 367.699 176.412 367.724 174.234C367.749 170.602 364.471 168.624 361.118 168.999C357.014 169.475 354.512 173.232 352.535 176.437C352.085 177.214 353.161 178.065 353.636 177.314Z" fill="white"/>
<path d="M332.241 188.258C331.941 187.432 331.841 186.33 332.366 185.579C333.692 183.625 334.418 186.53 334.393 187.307C334.368 188.909 334.168 190.512 334.043 192.115C333.968 192.992 335.344 193.167 335.394 192.29C335.544 190.437 335.869 188.509 335.744 186.656C335.669 185.428 335.094 184.201 333.868 183.75C330.915 182.699 330.314 186.931 330.965 188.834C331.29 189.636 332.541 189.085 332.241 188.258Z" fill="white"/>
<path d="M332.216 188.183C331.24 187.282 330.064 186.355 328.663 186.681C327.537 186.956 326.786 187.958 327.036 189.11C327.662 192.165 332.266 193.142 334.819 192.942C335.694 192.867 335.494 191.514 334.618 191.589C332.842 191.74 331.015 191.314 329.539 190.237C328.813 189.711 327.787 188.584 328.963 188.083C329.864 187.708 330.79 188.709 331.39 189.26C332.016 189.886 332.842 188.785 332.216 188.183Z" fill="white"/>
<path d="M368.375 195.546C368.825 195.12 369.401 194.494 370.051 194.794C370.977 195.195 370.176 196.297 369.701 196.798C368.875 197.649 367.824 198.2 366.698 198.576C365.847 198.851 366.398 200.104 367.249 199.828C369.125 199.227 372.003 197.549 371.853 195.22C371.803 194.343 371.277 193.542 370.402 193.317C369.301 193.041 368.3 193.767 367.549 194.469C366.898 195.07 367.749 196.147 368.375 195.546Z" fill="white"/>
<path d="M368.525 195.295C368.275 193.667 365.947 191.038 364.496 193.166C363.245 195.019 364.846 198 365.897 199.577C366.223 200.053 367.073 199.803 367.123 199.227C367.199 198.025 367.123 196.848 366.923 195.671C366.773 194.794 365.422 194.994 365.572 195.871C365.747 196.948 365.822 197.975 365.772 199.052C366.173 198.926 366.573 198.826 366.998 198.701C366.298 197.674 365.697 196.422 365.522 195.17C365.472 194.869 365.372 194.068 365.672 193.842C366.072 193.567 366.623 194.193 366.798 194.443C367.023 194.769 367.123 195.045 367.174 195.445C367.324 196.372 368.675 196.171 368.525 195.295Z" fill="white"/>
<path d="M350.383 139.148C352.485 138.172 355.237 136.043 353.361 133.513C353.11 133.188 352.51 133.163 352.285 133.513C350.783 135.868 350.183 138.547 350.608 141.302C350.658 141.703 351.008 141.878 351.384 141.878C353.611 141.853 355.488 140.551 356.489 138.597C356.839 137.921 355.938 137.495 355.438 137.796C354.487 138.372 354.237 139.499 354.512 140.526C354.912 141.928 356.163 142.654 357.565 142.73C358.866 142.78 360.843 142.429 361.844 141.477C362.644 140.726 362.694 139.374 361.693 138.773C361.368 138.572 360.993 138.597 360.743 138.898C359.516 140.275 360.267 142.604 361.969 143.205C364.046 143.957 365.872 142.003 366.198 140.1C366.348 139.198 365.047 139.098 364.846 139.925C364.446 141.502 365.372 143.255 366.998 143.631C368.75 144.032 370.276 142.704 370.602 141.077C370.727 140.4 369.751 140.025 369.376 140.576C368.575 141.728 368.7 143.456 369.951 144.257C371.302 145.109 372.904 144.407 373.605 143.105C373.179 142.98 372.729 142.88 372.303 142.755C372.178 144.057 372.979 145.109 374.205 145.484C375.782 145.985 377.308 145.008 378.484 144.082C378.109 143.882 377.758 143.656 377.383 143.456C377.133 144.683 377.433 145.81 378.284 146.737C378.884 147.388 379.96 146.536 379.36 145.885C378.759 145.209 378.559 144.508 378.759 143.631C378.884 143.03 378.084 142.679 377.658 143.005C377.058 143.481 376.432 143.957 375.681 144.157C374.831 144.357 373.529 144.082 373.655 142.93C373.73 142.128 372.704 141.928 372.353 142.579C371.553 144.032 369.551 142.73 370.452 141.402C370.051 141.227 369.626 141.077 369.225 140.901C369 141.978 367.774 142.73 366.798 142.028C366.148 141.552 365.972 140.826 366.173 140.075C365.722 140.025 365.272 139.975 364.821 139.9C364.646 140.901 363.77 142.154 362.594 141.928C361.593 141.728 361.168 140.425 361.819 139.674C361.493 139.724 361.168 139.774 360.868 139.799C360.893 140.375 360.668 140.726 360.192 140.826C359.842 140.951 359.491 141.052 359.141 141.152C358.49 141.302 357.815 141.427 357.164 141.252C356.163 141.027 355.012 139.599 356.288 138.848C355.938 138.572 355.588 138.322 355.237 138.046C354.462 139.624 352.935 140.476 351.209 140.501C351.459 140.701 351.734 140.876 351.984 141.077C351.609 138.672 352.085 136.343 353.386 134.315C353.035 134.315 352.66 134.315 352.31 134.315C353.561 135.993 351.059 137.295 349.857 137.846C349.032 138.272 349.582 139.524 350.383 139.148Z" fill="white"/>
<path d="M326.911 148.464C328.638 148.163 330.264 147.587 331.741 146.636C332.767 145.985 334.493 144.908 334.718 143.58C334.893 142.579 334.168 141.627 333.117 141.802C331.716 142.053 330.489 144.031 329.764 145.108C328.688 146.736 325.76 151.419 328.788 152.596C330.94 153.448 334.668 151.995 335.419 149.791C335.544 149.416 335.394 149.09 335.044 148.89C333.192 147.888 331.665 150.367 332.967 151.82C334.693 153.748 337.421 152.02 338.822 150.618C338.497 150.292 338.172 149.992 337.846 149.666C336.995 150.843 337.346 152.471 338.672 153.147C340.349 154.024 342.1 153.097 343.552 152.17C343.176 151.97 342.826 151.745 342.451 151.544C342.2 152.646 342.926 153.698 344.002 154.024C345.278 154.424 346.479 153.673 347.505 152.997C347.13 152.847 346.78 152.696 346.404 152.571C346.679 153.748 346.579 154.825 345.954 155.877C345.503 156.628 346.604 157.455 347.055 156.703C347.856 155.351 348.131 153.923 347.755 152.371C347.63 151.845 347.105 151.644 346.654 151.945C346.104 152.296 343.351 153.698 343.802 151.745C343.952 151.093 343.151 150.843 342.701 151.119C342.175 151.444 341.65 151.795 341.049 151.995C340.223 152.271 337.921 151.945 338.947 150.517C339.373 149.916 338.547 149.015 337.971 149.566C337.446 150.067 336.895 150.568 336.245 150.918C335.944 151.068 335.619 151.219 335.294 151.294C334.969 151.394 334.668 151.369 334.393 151.194C333.842 151.068 333.893 150.743 334.518 150.192C334.393 149.891 334.268 149.591 334.143 149.29C333.692 150.693 331.165 151.77 329.739 151.444C328.387 151.144 328.988 149.841 329.338 148.94C329.714 147.963 330.189 147.036 330.74 146.16C331.215 145.434 331.716 144.732 332.291 144.106C332.366 144.031 333.592 142.704 333.117 143.781C332.992 144.081 332.241 144.607 331.966 144.807C330.414 146.035 328.613 146.761 326.686 147.112C325.835 147.262 326.035 148.614 326.911 148.464Z" fill="white"/>
<path d="M362.169 154.925C363.545 154.549 364.746 153.848 365.597 152.671C366.173 151.869 366.698 150.517 365.772 149.741C363.52 147.887 362.344 153.322 362.394 154.624C362.469 157.755 365.522 159.082 368.275 158.431C369.376 158.18 371.052 157.755 371.753 156.778C372.303 155.977 372.078 154.9 371.127 154.549C370.852 154.449 370.502 154.524 370.327 154.775C369.351 156.127 369.751 158.005 371.102 158.982C372.729 160.159 374.906 159.433 376.282 158.256C375.907 158.055 375.556 157.855 375.181 157.63C375.156 158.982 376.057 160.009 377.383 160.284C379.11 160.635 380.536 159.458 381.662 158.306C381.287 158.105 380.936 157.88 380.561 157.68C380.286 160.76 383.539 162.613 386.041 160.81C385.666 160.66 385.315 160.51 384.94 160.384C385.065 161.336 385.165 162.588 384.815 163.515C385.065 163.365 385.29 163.239 385.541 163.089C385.491 163.089 385.466 163.064 385.416 163.064C385.591 163.189 385.791 163.339 385.966 163.465C385.941 163.415 385.941 163.365 385.916 163.314C385.741 163.64 385.566 163.941 385.391 164.266C385.416 164.266 385.441 164.266 385.466 164.266C386.341 164.166 386.141 162.814 385.265 162.914C385.24 162.914 385.215 162.914 385.19 162.914C384.715 162.964 384.54 163.465 384.665 163.865C384.69 163.915 384.69 163.966 384.715 164.016C384.79 164.241 385.04 164.391 385.265 164.416C385.316 164.416 385.341 164.441 385.391 164.441C385.691 164.491 385.991 164.291 386.116 164.016C386.567 162.864 386.517 161.386 386.341 160.159C386.266 159.633 385.641 159.433 385.24 159.733C383.714 160.81 381.787 159.683 381.962 157.83C382.012 157.304 381.312 156.753 380.861 157.204C380.311 157.755 379.71 158.381 378.985 158.706C378.184 159.057 376.582 159.057 376.582 157.78C376.582 157.229 375.982 156.753 375.481 157.154C374.681 157.83 373.63 158.406 372.529 158.105C371.478 157.805 370.752 156.578 371.453 155.601C371.177 155.676 370.927 155.751 370.652 155.826C370.852 155.901 369.301 156.703 369.226 156.753C368.5 157.028 367.749 157.254 366.948 157.254C365.422 157.279 363.996 156.452 363.82 154.8C363.72 153.673 364.146 152.27 364.721 151.318C364.896 151.018 365.022 150.868 364.896 151.318C364.771 151.694 364.396 152.095 364.121 152.37C363.545 152.946 362.845 153.347 362.069 153.547C361.118 153.798 361.318 155.15 362.169 154.925Z" fill="white"/>
<path d="M256.045 357.304C253.468 357.83 248.588 357.98 247.987 361.336C247.762 362.513 248.313 363.665 249.414 364.166C250.89 364.867 252.467 364.241 253.843 363.59C253.568 363.239 253.292 362.888 253.017 362.538C251.991 363.79 251.716 365.543 252.842 366.82C253.793 367.897 255.344 368.022 256.495 367.196C259.448 365.067 258.597 360.334 256.896 357.755C256.42 357.028 255.344 357.88 255.82 358.606C256.921 360.284 257.446 362.488 256.796 364.441C256.52 365.243 255.995 366.194 255.094 366.319C253.192 366.62 253.317 364.316 254.118 363.339C254.544 362.813 253.918 362.012 253.292 362.287C252.442 362.688 251.441 363.239 250.465 363.039C248.588 362.663 249.414 360.61 250.615 359.958C252.241 359.082 254.469 358.957 256.245 358.606C257.096 358.481 256.896 357.128 256.045 357.304Z" fill="#5DFFE3"/>
<path d="M275.563 320.639C275.138 319.788 274.662 318.886 274.487 317.959C274.437 317.659 274.587 315.004 275.163 315.28C275.563 315.455 274.312 319.988 274.187 320.564C273.987 321.415 275.363 321.591 275.538 320.739C275.788 319.687 278.091 312.575 274.888 313.852C273.812 314.278 273.211 315.58 273.061 316.682C272.861 318.31 273.561 319.813 274.287 321.215C274.712 321.966 275.964 321.44 275.563 320.639Z" fill="#5DFFE3"/>
<path d="M241.507 329.58C240.481 328.578 234.15 321.065 232.924 325.598C232.448 327.401 234.3 328.729 235.626 329.53C237.303 330.582 239.179 331.208 241.156 330.807C242.007 330.632 241.807 329.28 240.956 329.455C239.58 329.73 238.304 329.43 237.077 328.804C236.602 328.553 236.127 328.253 235.701 327.952C235.451 327.777 235.226 327.602 235 327.401C234.225 326.925 234.275 326.349 235.151 325.648C236.026 325.698 237.102 327.151 237.678 327.702C238.679 328.678 239.68 329.68 240.706 330.657C241.306 331.283 242.107 330.181 241.507 329.58Z" fill="#5DFFE3"/>
<path d="M243.208 323.47C242.357 322.493 241.832 321.316 241.857 320.014C241.857 319.588 241.932 319.137 242.082 318.736C242.382 317.935 244.209 316.658 244.184 318.611C244.159 319.563 243.233 320.414 242.858 321.241C242.482 322.067 242.407 322.819 242.708 323.695C242.983 324.522 244.234 323.971 243.959 323.144C243.358 321.416 245.936 319.838 245.51 317.885C245.235 316.583 243.859 315.932 242.608 316.332C239.254 317.434 240.43 322.343 242.132 324.296C242.708 324.972 243.784 324.121 243.208 323.47Z" fill="#5DFFE3"/>
<path d="M623.162 394.218L528.224 433.787C521.092 427.876 514.236 422.191 507.805 416.857C501.349 411.498 495.343 406.514 489.913 402.031C482.556 395.946 476.275 390.736 471.496 386.78C471.496 386.78 471.471 386.78 471.471 386.755C470.47 385.928 469.544 385.152 468.668 384.451C463.864 380.494 461.161 378.24 461.161 378.215C461.136 378.19 461.136 378.165 461.136 378.14C461.111 378.114 461.111 378.089 461.086 378.089C459.46 375.385 457.883 372.83 456.382 370.451C451.502 362.763 447.373 357.078 444.396 354.498L455.956 338.07L459.36 333.236L459.71 332.735L460.16 332.109C460.16 332.109 460.736 327.651 461.637 320.614C463.614 305.237 467.192 277.564 469.819 257.278C470.045 255.5 470.27 253.772 470.495 252.119C471.121 247.361 471.646 243.179 472.071 239.898C472.697 235.14 473.072 232.26 473.072 232.26C473.097 232.31 473.122 232.36 473.147 232.41C474.999 235.54 487.261 257.854 502.35 282.097C513.985 300.779 527.298 320.639 538.809 333.762C541.086 336.367 543.313 338.721 545.415 340.724C546.441 341.701 547.442 342.602 548.418 343.404C549.093 343.98 549.769 344.506 550.419 344.982C550.67 345.157 550.895 345.332 551.145 345.508C551.145 345.558 551.17 345.583 551.17 345.633C552.296 348.362 583.475 367.696 621.686 390.762L623.162 394.218Z" fill="#FDBAA0"/>
<path d="M469.819 386.83C440.142 376.613 410.564 335.716 404.183 322.819C392.272 298.702 371.378 284.702 372.128 280.495C372.879 276.287 383.764 268.624 402.507 280.745C420.323 292.265 431.884 310.222 444.12 310.297C448.95 310.322 455.481 322.593 455.481 322.593C455.481 322.593 481.155 390.737 469.819 386.83Z" fill="#FDBAA0"/>
<path d="M376.983 284.476C377.183 282.798 379.26 284.226 379.81 284.701C380.211 285.052 380.561 285.478 380.936 285.879C381.787 286.78 382.588 287.732 383.389 288.658C384.815 290.311 388.343 293.116 385.716 295.22C384.99 295.796 386.016 296.798 386.742 296.222C390.595 293.141 385.516 288.909 383.464 286.555C382.163 285.052 380.586 282.673 378.459 282.322C376.958 282.072 375.706 283.049 375.556 284.526C375.431 285.428 376.883 285.378 376.983 284.476Z" fill="#E79780"/>
<path d="M483.107 256.102C481.855 256.552 454.705 257.379 456.957 261.211C465.74 276.187 465.54 297.173 459.91 303.76C449.125 316.382 433.385 308.143 431.709 307.141L468.718 354.348C480.204 358.005 544.589 370.577 545.139 366.595C547.341 350.366 486.285 254.975 483.107 256.102Z" fill="#FDBAA0"/>
<path d="M465.09 385.879C471.571 387.256 478.177 387.206 484.658 385.779C485.934 385.503 485.384 383.55 484.108 383.825C477.977 385.178 471.721 385.203 465.565 383.901C464.289 383.65 463.814 385.603 465.09 385.879Z" fill="#EF9F8A"/>
<path d="M494.067 337.244C494.067 337.244 479.303 242.954 473.072 232.235C466.866 221.516 431.934 218.787 420.874 219.112C409.813 219.463 384.765 241.802 383.639 249.19C382.263 258.231 401.756 254.825 414.768 248.138C426.729 242.002 441.643 248.689 446.973 249.465C450.551 249.991 460.21 264.141 462.362 274.659C466.466 294.844 442.018 310.497 442.018 310.497L494.067 337.244Z" fill="#FDBAA0"/>
<path d="M505.503 282.197C505.503 282.197 484.808 221.592 470.595 212.426C456.382 203.26 439.491 195.696 428.306 199.854C417.145 204.036 395.525 218.486 395.475 221.942C395.425 225.398 411.815 228.278 423.501 225.599C435.187 222.919 462.838 240.475 462.838 240.475L489.863 281.496L505.503 282.197Z" fill="#FDBAA0"/>
<path d="M563.256 357.278C563.256 357.278 535.806 334.313 525.546 309.019C511.283 273.858 499.672 231.809 495.969 226.7C489.613 217.91 467.292 199.077 460.711 197.349C454.105 195.621 432.935 188.609 428.256 189.661C423.576 190.712 434.386 207.993 449.5 219.287C464.589 230.582 479.929 248.513 479.929 248.513L493.641 334.639L563.256 357.278Z" fill="#FDBAA0"/>
<path d="M495.193 421.491C498.096 425.097 501.849 429.53 506.203 434.589C506.403 434.814 506.579 435.039 506.779 435.265C509.131 437.969 515.537 445.257 523.494 454.248C527.748 459.081 532.453 464.416 537.182 469.775L637 389.71C618.983 377.063 601.467 364.742 594.711 360.058C576.294 347.311 560.929 336.442 558.877 334.338C555.149 330.507 552.546 331.458 549.368 336.167C548.418 337.569 547.392 339.347 546.291 341.426C545.94 342.102 545.565 342.803 545.19 343.53C545.165 343.58 545.14 343.605 545.114 343.655C545.014 343.855 544.889 344.08 544.789 344.281C544.689 344.456 544.614 344.631 544.539 344.782C543.313 347.161 542.062 349.49 540.76 351.719C540.46 352.245 540.16 352.771 539.835 353.297C537.833 356.677 535.731 359.883 533.604 362.913C533.203 363.489 532.778 364.065 532.378 364.641C531.176 366.319 529.95 367.922 528.724 369.5C528.349 369.976 527.974 370.452 527.598 370.927C525.196 373.958 522.769 376.788 520.366 379.442C519.866 379.993 519.365 380.544 518.89 381.07C518.665 381.321 518.415 381.571 518.189 381.821C517.964 382.047 517.739 382.297 517.539 382.523C513.535 386.78 509.656 390.487 506.103 393.767C505.828 394.018 505.578 394.243 505.327 394.494C505.177 394.644 505.027 394.769 504.877 394.919C504.301 395.445 503.751 395.946 503.2 396.447C502.275 397.273 501.399 398.075 500.548 398.826C498.496 400.654 496.669 402.307 495.068 403.785C494.392 404.411 493.767 405.012 493.191 405.563C493.141 405.613 493.091 405.663 493.016 405.713C492.616 406.089 492.24 406.464 491.89 406.84C489.788 409.044 488.637 410.722 488.812 411.974C488.962 413.001 490.363 415.205 492.766 418.335C493.491 419.362 494.292 420.389 495.193 421.491Z" fill="#FF8D67"/>
<path d="M545.69 341.302C558.227 344.332 563.582 357.004 571.489 365.794C573.716 368.274 576.269 370.553 579.271 372.105C582.024 373.533 584.977 374.434 587.804 375.637C590.707 376.889 593.284 378.517 595.587 380.72C598.089 383.1 600.166 385.854 602.518 388.359C607.373 393.543 613.779 397.224 620.735 398.752C622.311 399.103 622.036 401.607 620.46 401.256C614.404 399.929 608.724 397.199 603.969 393.192C598.965 388.96 595.587 382.824 589.881 379.468C587.129 377.84 584.051 376.914 581.098 375.712C578.195 374.51 575.493 372.982 573.116 370.928C568.161 366.671 564.708 361.111 560.804 355.952C556.85 350.743 551.996 345.409 545.415 343.831C543.863 343.455 544.114 340.926 545.69 341.302Z" fill="#FF997F"/>
<path d="M533.329 365.493C536.682 366.245 539.935 367.572 542.862 369.4C545.915 371.303 548.418 373.758 550.87 376.387C552.997 378.666 555.174 380.895 557.901 382.498C560.379 383.951 563.031 384.977 565.684 386.079C568.386 387.181 571.064 388.408 573.341 390.262C575.668 392.165 577.495 394.619 579.371 396.948L579.647 397.299C581.549 399.678 583.55 402.057 586.053 403.81C588.23 405.338 590.757 406.29 593.284 407.041C597.889 408.443 603.394 409.345 606.121 413.753C606.247 413.953 606.397 414.078 606.547 414.178L608.298 412.776C608.273 412.576 608.223 412.375 608.098 412.175C604.945 407.041 598.589 406.089 593.309 404.411C590.532 403.535 588.005 402.358 585.802 400.404C584.251 399.002 582.9 397.399 581.599 395.771C580.898 394.895 580.197 393.993 579.497 393.117C577.545 390.712 575.393 388.408 572.765 386.755C570.238 385.153 567.435 384.076 564.658 382.949C561.855 381.797 559.103 380.57 556.75 378.641C554.123 376.513 552.046 373.808 549.619 371.479C545.165 367.221 539.634 364.366 533.654 362.989H533.629C532.528 362.739 532.052 363.891 532.428 364.742C532.553 365.093 532.853 365.393 533.329 365.493Z" fill="#FF997F"/>
<path d="M520.667 380.419C520.391 385.503 523.945 389.81 527.573 392.941C532.052 396.822 536.957 400.053 540.135 405.212C542.937 409.77 544.864 415.505 549.544 418.56C551.821 420.038 554.473 420.739 556.475 422.642C558.502 424.546 559.703 427.251 561.98 428.928C566.034 431.934 571.914 432.059 574.417 437.018C575.142 438.47 572.84 439.472 572.09 438.019C571.039 435.941 568.862 434.939 566.81 434.062C564.658 433.161 562.381 432.359 560.504 430.957C558.252 429.279 557.001 426.75 555.074 424.746C553.097 422.693 550.194 422.016 547.892 420.464C543.088 417.208 541.086 411.523 538.183 406.765C534.98 401.506 529.875 398.375 525.396 394.318C521.342 390.637 517.889 385.828 518.189 380.093C518.239 378.515 520.767 378.816 520.667 380.419Z" fill="#FF997F"/>
<path d="M505.477 395.07C506.178 400.054 511.008 402.984 514.386 406.164C516.212 407.867 517.839 409.72 518.965 411.999C520.041 414.178 520.642 416.582 521.342 418.886C522.068 421.316 522.919 423.795 524.62 425.698C526.397 427.677 528.899 428.854 531.126 430.256C535.43 432.961 538.308 437.018 541.086 441.175C544.063 445.633 547.166 450.542 552.571 452.17C552.171 452.896 551.771 453.647 551.37 454.373C549.368 453.196 547.392 452.019 545.39 450.842C543.988 450.016 545.49 447.962 546.866 448.789C548.868 449.966 550.845 451.143 552.847 452.32C554.148 453.096 552.947 454.899 551.645 454.524C541.386 451.443 539.159 439.122 531.076 433.287C528.774 431.609 526.097 430.482 523.945 428.578C521.968 426.85 520.642 424.647 519.741 422.167C518.84 419.763 518.314 417.234 517.414 414.829C516.488 412.375 515.086 410.347 513.235 408.518C509.256 404.637 503.801 401.431 502.975 395.421C502.75 393.818 505.252 393.442 505.477 395.07Z" fill="#FF997F"/>
<path d="M495.493 404.912C495.368 407.041 496.87 408.644 498.396 409.921C500.123 411.373 502.074 412.576 503.726 414.103C507.179 417.334 509.256 421.616 511.158 425.874C513.06 430.106 514.886 434.589 518.214 437.945C520.041 439.773 522.343 441 524.495 442.453C526.547 443.83 528.299 445.458 529.75 447.436C532.828 451.619 534.93 457.479 540.01 459.633C541.511 460.259 540.61 462.613 539.109 461.987C534.355 459.983 531.952 455.425 529.325 451.293C527.923 449.114 526.422 447.011 524.32 445.433C522.118 443.755 519.616 442.553 517.539 440.75C513.735 437.469 511.533 432.911 509.531 428.428C507.53 423.945 505.578 419.087 501.799 415.781C498.271 412.676 492.641 410.171 492.991 404.662C493.091 403.009 495.593 403.284 495.493 404.912Z" fill="#FF997F"/>
<path d="M547.867 383.624C548.518 383.624 549.193 383.774 549.744 384.075C550.044 384.25 550.294 384.425 550.444 384.751C550.57 385.026 550.595 385.427 550.469 385.703C550.219 386.279 549.469 386.754 548.843 386.429C548.743 386.379 548.618 386.329 548.518 386.279C548.443 386.254 548.393 386.229 548.318 386.204C548.267 386.178 548.042 386.128 548.242 386.178C548.418 386.229 548.242 386.178 548.192 386.178C548.117 386.178 548.067 386.153 547.992 386.153C547.867 386.128 547.717 386.128 547.592 386.128C547.292 386.128 546.916 385.878 546.741 385.653C546.541 385.402 546.416 385.026 546.466 384.726C546.516 384.4 546.666 384.075 546.941 383.874C547.242 383.699 547.517 383.624 547.867 383.624Z" fill="#FF997F"/>
<path d="M554.974 402.958C555.199 403.108 555.424 403.233 555.649 403.384C555.925 403.559 556.125 403.91 556.15 404.21C556.2 404.511 556.125 404.886 555.925 405.137C555.474 405.688 554.748 405.788 554.173 405.412C553.948 405.262 553.723 405.137 553.497 404.986C553.222 404.811 553.022 404.461 552.997 404.16C552.947 403.859 553.022 403.484 553.222 403.233C553.672 402.657 554.398 402.557 554.974 402.958Z" fill="#FF997F"/>
<path d="M558.902 364.942C559.053 365.142 559.228 365.342 559.378 365.543C559.578 365.793 559.678 366.144 559.653 366.469C559.628 366.77 559.453 367.121 559.178 367.321C558.627 367.722 557.851 367.672 557.401 367.121C557.251 366.92 557.076 366.72 556.926 366.52C556.725 366.269 556.625 365.918 556.65 365.593C556.675 365.292 556.85 364.942 557.126 364.741C557.701 364.341 558.477 364.391 558.902 364.942Z" fill="#FF997F"/>
<path d="M580.297 366.044C581.123 366.369 581.749 366.995 582.124 367.772C582.399 368.373 582.074 369.199 581.473 369.425C580.823 369.675 580.122 369.4 579.822 368.774C579.697 368.523 579.972 368.924 579.797 368.723C579.772 368.698 579.522 368.423 579.647 368.548C579.797 368.673 579.522 368.473 579.497 368.448C579.421 368.398 579.447 368.398 579.572 368.473C579.522 368.448 579.447 368.423 579.396 368.398C578.796 368.147 578.396 367.396 578.671 366.77C578.946 366.144 579.647 365.768 580.297 366.044Z" fill="#FF997F"/>
<path d="M582.449 381.445C582.599 381.771 582.299 381.295 582.524 381.571C582.599 381.671 582.674 381.771 582.749 381.846C582.599 381.696 582.825 381.896 582.875 381.921C582.925 381.946 583.2 382.122 583 382.021C583.6 382.322 584.026 382.998 583.725 383.649C583.475 384.225 582.725 384.676 582.099 384.376C581.223 383.95 580.547 383.324 580.122 382.422C579.822 381.821 580.172 380.995 580.773 380.769C581.448 380.544 582.149 380.819 582.449 381.445Z" fill="#FF997F"/>
<path d="M607.447 379.091C607.873 379.617 608.298 380.143 608.699 380.669C609.099 381.195 609.049 382.046 608.499 382.447C607.948 382.848 607.172 382.798 606.722 382.247C606.296 381.721 605.871 381.195 605.471 380.669C605.07 380.143 605.12 379.292 605.671 378.891C606.221 378.49 606.997 378.54 607.447 379.091Z" fill="#FF997F"/>
<path d="M597.413 395.246C597.463 395.321 597.513 395.371 597.563 395.446C597.764 395.696 597.864 396.047 597.839 396.373C597.814 396.673 597.638 397.024 597.363 397.224C597.088 397.424 596.763 397.55 596.437 397.5C596.112 397.449 595.812 397.299 595.587 397.024C595.536 396.949 595.486 396.899 595.436 396.823C595.236 396.573 595.136 396.222 595.161 395.897C595.186 395.596 595.361 395.246 595.637 395.045C595.912 394.845 596.237 394.72 596.562 394.77C596.888 394.82 597.188 394.97 597.413 395.246Z" fill="#FF997F"/>
<path d="M583.55 413.477C583.6 413.552 583.65 413.602 583.7 413.677C583.901 413.928 584.001 414.279 583.976 414.604C583.951 414.905 583.776 415.255 583.5 415.456C583.225 415.656 582.9 415.781 582.574 415.731C582.249 415.681 581.949 415.531 581.724 415.255C581.674 415.18 581.624 415.13 581.573 415.055C581.373 414.804 581.273 414.454 581.298 414.128C581.323 413.828 581.498 413.477 581.774 413.277C582.049 413.076 582.374 412.951 582.7 413.001C583.025 413.051 583.325 413.202 583.55 413.477Z" fill="#FF997F"/>
<path d="M574.967 402.358C575.117 402.684 575.243 402.984 575.393 403.31C575.668 403.911 575.368 404.737 574.742 404.963C574.091 405.213 573.366 404.938 573.091 404.311C572.94 403.986 572.815 403.685 572.665 403.36C572.39 402.759 572.69 401.932 573.316 401.707C573.941 401.456 574.667 401.707 574.967 402.358Z" fill="#FF997F"/>
<path d="M568.586 413.651L568.611 413.902C568.561 413.726 568.561 413.701 568.611 413.826C568.636 413.877 568.636 413.902 568.661 413.927C568.711 414.027 568.686 413.977 568.586 413.826C568.611 413.852 568.636 413.902 568.661 413.927C568.862 414.177 568.486 413.801 568.686 413.952C569.212 414.352 569.412 415.179 568.962 415.705C568.536 416.231 567.761 416.431 567.21 415.98C566.584 415.504 566.159 414.803 566.084 414.002C566.034 413.351 566.434 412.649 567.16 412.574C567.786 412.524 568.511 412.95 568.586 413.651Z" fill="#FF997F"/>
<path d="M536.807 425.373C535.531 426.4 533.954 424.421 535.23 423.395C536.506 422.393 538.083 424.371 536.807 425.373Z" fill="#FF997F"/>
<path d="M549.268 434.488C549.744 435.089 550.219 435.665 550.695 436.266C551.12 436.792 551.02 437.619 550.494 438.045C549.969 438.47 549.143 438.395 548.718 437.844C548.242 437.243 547.767 436.667 547.291 436.066C546.866 435.54 546.966 434.714 547.492 434.288C548.042 433.862 548.843 433.937 549.268 434.488Z" fill="#FF997F"/>
<path d="M531.151 413.277C531.201 413.452 531.227 413.652 531.277 413.828C531.327 414.128 531.227 414.504 531.051 414.754C530.876 415.005 530.526 415.23 530.201 415.255C529.875 415.28 529.525 415.23 529.275 415.03C528.999 414.804 528.849 414.529 528.774 414.203C528.724 414.028 528.699 413.827 528.649 413.652C528.599 413.352 528.699 412.976 528.874 412.726C529.049 412.475 529.4 412.25 529.7 412.225C530.025 412.2 530.376 412.25 530.626 412.45C530.901 412.675 531.076 412.951 531.151 413.277Z" fill="#FF997F"/>
<path d="M521.567 397.473C520.291 398.5 518.715 396.521 519.991 395.494C521.267 394.493 522.844 396.446 521.567 397.473Z" fill="#FF997F"/>
<path d="M517.213 398.076C517.414 398.326 517.639 398.601 517.839 398.852C518.239 399.378 518.189 400.229 517.639 400.63C517.088 401.031 516.313 400.981 515.862 400.43C515.662 400.179 515.437 399.904 515.237 399.653C514.836 399.127 514.886 398.276 515.437 397.875C515.987 397.474 516.763 397.525 517.213 398.076Z" fill="#FF997F"/>
<path d="M528.299 401.907C528.499 402.282 528.699 402.658 528.899 403.059C529.2 403.635 528.849 404.486 528.249 404.712C527.573 404.962 526.923 404.687 526.597 404.061C526.397 403.685 526.197 403.309 525.997 402.909C525.696 402.333 526.047 401.481 526.647 401.256C527.323 400.98 527.974 401.256 528.299 401.907Z" fill="#FF997F"/>
<path d="M544.364 396.02C543.088 397.047 541.511 395.069 542.787 394.042C544.038 393.04 545.615 395.019 544.364 396.02Z" fill="#FF997F"/>
<path d="M539.284 383.124C539.334 383.3 539.359 383.5 539.409 383.675C539.484 383.976 539.359 384.351 539.184 384.602C539.009 384.852 538.658 385.078 538.358 385.103C538.033 385.128 537.683 385.078 537.432 384.877C537.157 384.652 537.007 384.376 536.932 384.051C536.882 383.876 536.857 383.675 536.807 383.5C536.732 383.199 536.857 382.824 537.032 382.573C537.207 382.323 537.557 382.097 537.858 382.072C538.183 382.047 538.533 382.097 538.784 382.298C539.059 382.498 539.209 382.774 539.284 383.124Z" fill="#FF997F"/>
<path d="M514.986 418.735C515.087 418.985 515.187 419.236 515.262 419.486C515.387 419.787 515.412 420.138 515.287 420.438C515.187 420.739 514.911 421.039 514.611 421.139C514.311 421.264 513.961 421.29 513.66 421.164C513.36 421.039 513.085 420.814 512.96 420.488C512.859 420.238 512.759 419.987 512.684 419.737C512.559 419.436 512.534 419.086 512.659 418.785C512.759 418.485 513.035 418.184 513.335 418.084C513.635 417.959 513.986 417.934 514.286 418.059C514.586 418.184 514.861 418.409 514.986 418.735Z" fill="#FF997F"/>
<path d="M522.393 430.807C522.493 430.932 522.594 431.058 522.719 431.208C522.919 431.458 523.019 431.809 522.994 432.134C522.969 432.435 522.794 432.786 522.518 432.986C522.243 433.186 521.918 433.312 521.593 433.261C521.267 433.211 520.967 433.061 520.742 432.786C520.642 432.66 520.542 432.535 520.417 432.385C520.216 432.134 520.116 431.784 520.141 431.458C520.166 431.158 520.341 430.807 520.617 430.607C520.892 430.406 521.217 430.281 521.543 430.331C521.868 430.381 522.168 430.532 522.393 430.807Z" fill="#FF997F"/>
<path d="M533.404 443.329C533.504 443.454 533.604 443.579 533.729 443.729C533.929 443.98 534.029 444.33 534.004 444.656C533.979 444.957 533.804 445.307 533.529 445.507C533.253 445.708 532.928 445.833 532.603 445.783C532.278 445.733 531.977 445.583 531.752 445.307C531.652 445.182 531.552 445.057 531.427 444.906C531.227 444.656 531.126 444.305 531.151 443.98C531.177 443.679 531.352 443.329 531.627 443.128C531.902 442.928 532.228 442.803 532.553 442.853C532.878 442.928 533.178 443.053 533.404 443.329Z" fill="#FF997F"/>
<path d="M537.457 258.481L357.84 253.723L357.615 271.103L536.181 291.464L537.457 258.481Z" fill="#FF8D67"/>
<path d="M341.775 258.907L357.815 253.698L356.939 270.903L341.4 261.787C340.273 261.061 340.499 259.333 341.775 258.907Z" fill="#384955"/>
<path d="M544.013 275.086C544.109 265.959 540.972 258.525 537.006 258.484C533.04 258.442 529.747 265.808 529.651 274.936C529.555 284.063 532.693 291.497 536.659 291.538C540.625 291.58 543.917 284.214 544.013 275.086Z" fill="#FFA188"/>
<path d="M360.973 262.467C361.024 257.668 359.597 253.763 357.787 253.744C355.977 253.725 354.468 257.6 354.418 262.399C354.367 267.198 355.794 271.103 357.604 271.122C359.415 271.141 360.923 267.266 360.973 262.467Z" fill="#FF8D67"/>
<path d="M406.435 226.325C417.195 218.737 431.584 221.016 443.92 219.162C446.823 218.737 449.751 218.361 452.653 218.987C455.156 219.513 457.458 220.69 459.535 222.143C463.689 225.048 466.967 229.03 470.095 232.962C470.92 234.013 472.572 232.736 471.746 231.684C468.393 227.502 464.865 223.22 460.36 220.214C455.631 217.034 450.576 216.157 444.971 216.934C438.09 217.885 431.233 218.061 424.302 218.662C417.521 219.238 410.764 220.74 405.134 224.722C404.058 225.448 405.359 227.101 406.435 226.325Z" fill="#EF9F8A"/>
<path d="M430.883 199.979C435.988 200.655 441.092 201.356 446.172 202.158C451.127 202.934 456.282 203.51 460.986 205.388C469.369 208.769 474.874 216.433 479.954 223.545C480.729 224.647 482.381 223.345 481.605 222.268C476.425 215.03 470.82 207.342 462.387 203.711C457.808 201.732 452.753 201.081 447.874 200.305C442.319 199.428 436.763 198.627 431.183 197.9C429.832 197.75 429.532 199.804 430.883 199.979Z" fill="#EF9F8A"/>
<path d="M461.136 312.175C454.08 312.125 447.073 311.223 440.242 309.495C438.94 309.17 438.665 311.248 439.966 311.574C446.823 313.302 453.804 314.204 460.861 314.254C462.187 314.254 462.462 312.175 461.136 312.175Z" fill="#EF9F8A"/>
</svg>
